<?xml version="1.0" encoding="UTF-8"?>
<svg width="157px" height="40px" viewBox="0 0 157 40" version="1.1" xmlns="http://www.w3.org/2000/svg" xmlns:xlink="http://www.w3.org/1999/xlink">
    <title>ahaui-logo</title>
    <g id="Page-1" stroke="none" stroke-width="1" fill="none" fill-rule="evenodd">
        <g id="Artboard" transform="translate(-5434.000000, -2163.000000)">
            <g id="ahaui-logo" transform="translate(5434.000000, 2163.000000)">
                <g id="Group">
                    <polygon id="Combined-Shape-Copy-22" fill="#375DE7" points="23.9106203 26.5673559 34.5375626 37.1942982 31.7745576 39.9573032 23.9106203 32.0933659 16.0466829 39.9573032 13.2836779 37.1942982"></polygon>
                    <polygon id="Combined-Shape-Copy-23" fill="#21388B" points="23.9106203 0 34.5375626 10.6269423 31.7745576 13.3899474 23.9106203 5.52601002 16.0466829 13.3899474 13.2836779 10.6269423"></polygon>
                    <polygon id="Combined-Shape-Copy-24" fill="#21388B" points="0 23.9106203 10.6269423 13.2836779 13.3899474 16.0466829 5.52601002 23.9106203 13.3899474 31.7745576 10.6269423 34.5375626"></polygon>
                    <polygon id="Combined-Shape-Copy-25" fill="#21388B" points="47.8212406 23.9106203 37.1942982 34.5375626 34.4312932 31.7745576 42.2952306 23.9106203 34.4312932 16.0466829 37.1942982 13.2836779"></polygon>
                </g>
                <path d="M116.713772,27.5065868 L119.099401,33.2838323 L121.168862,27.5065868 L122.692216,27.5065868 L119.458683,36.0718563 C118.811976,37.7964072 117.992814,38.4862275 116.785629,38.4862275 L116.785629,38.4862275 L115.722156,38.4862275 L115.722156,37.2071856 L115.722156,37.2071856 L116.656287,37.2071856 C117.288623,37.2071856 117.791617,36.7616766 118.179641,35.8562874 L118.179641,35.8562874 L118.467066,35.1808383 L115.118563,27.5065868 L116.713772,27.5065868 Z M90.0550898,27.3197605 C91.0426005,27.3197605 91.8690211,27.6667237 92.5343517,28.3491437 L92.6850299,28.5125749 L92.6850299,27.5065868 L94.0502994,27.5065868 L94.0502994,34.4191617 C94.0502994,35.6694611 93.6766467,36.6467066 92.9293413,37.3796407 C92.2354149,38.0602224 91.3184407,38.4310155 90.1899251,38.4805136 L89.9257485,38.4862275 L87.425533,38.4862275 L87.425533,37.2359281 L89.9113772,37.2359281 C90.7592814,37.2359281 91.4347305,36.9916168 91.9377246,36.502994 C92.3949918,36.0718563 92.6384718,35.5219478 92.6789618,34.8532687 L92.6850299,34.6491018 L92.6850299,34.0167665 C91.9952096,34.8215569 91.0898204,35.2239521 89.9832335,35.2239521 C88.8766467,35.2239521 87.9568862,34.8502994 87.2239521,34.0886228 C86.491018,33.3269461 86.1173653,32.3928144 86.1173653,31.257485 C86.1173653,30.1365269 86.491018,29.2023952 87.2526946,28.4550898 C88.0143713,27.6934132 88.948503,27.3197605 90.0550898,27.3197605 Z M132.378443,24.7760479 L132.378443,27.5065868 L134.62994,27.5065868 L134.62994,28.6850299 L132.378443,28.6850299 L132.378443,32.6083832 C132.378443,33.6287425 132.79521,34.1317365 133.628743,34.1317365 L133.628743,34.1317365 L134.62994,34.1317365 L134.62994,35.3964072 L134.62994,35.3964072 L133.470659,35.3964072 C131.846707,35.3964072 131.013174,34.3473054 131.013174,32.5077844 L131.013174,32.5077844 L131.013174,28.6850299 L129.647904,28.6850299 L129.647904,27.5065868 L131.027545,27.5065868 L131.027545,24.7760479 L132.378443,24.7760479 Z M139.588024,27.3197605 C140.68024,27.3197605 141.571257,27.6646707 142.261078,28.3688623 C142.965269,29.0730539 143.31018,30.0215569 143.31018,31.2143713 C143.31018,31.3005988 143.299621,31.4818526 143.278504,31.7671828 L143.267066,31.9185629 L137.130539,31.9185629 C137.360479,33.2263473 138.222754,34.1173653 139.832335,34.1173653 C140.675449,34.1173653 141.639321,33.8275449 142.336519,33.3807385 L142.51976,33.2550898 L143.108982,34.3041916 C142.347305,34.8934132 141.082635,35.3820359 139.803593,35.3820359 C136.900599,35.3820359 135.693413,33.3269461 135.693413,31.3293413 C135.693413,30.1652695 136.052695,29.2167665 136.771257,28.4550898 C137.504192,27.6934132 138.438323,27.3197605 139.588024,27.3197605 Z M111.233533,24.4023952 C112.541317,24.4023952 113.590419,24.9197605 114.352096,25.9688623 L114.352096,25.9688623 L113.389222,26.8886228 C112.814371,26.1269461 112.095808,25.7532934 111.247904,25.7532934 C110.28503,25.7532934 109.566467,26.3281437 109.566467,27.1904192 C109.566467,27.7508982 109.868263,28.1964072 110.471856,28.5556886 C110.658683,28.6706587 111.061078,28.8862275 111.707784,29.188024 C112.354491,29.4898204 112.8,29.7197605 113.044311,29.8634731 C114.064671,30.4814371 114.582036,31.3005988 114.582036,32.3353293 C114.582036,33.2407186 114.251497,33.9736527 113.576048,34.5341317 C112.91497,35.0946108 112.081437,35.3820359 111.075449,35.3820359 C109.537725,35.3820359 108.143713,34.6203593 107.453892,33.1976048 L107.453892,33.1976048 L108.517365,32.3209581 C109.092216,33.4562874 110.026347,34.0167665 111.061078,34.0167665 C112.268263,34.0167665 113.015569,33.3125749 113.015569,32.4071856 C113.015569,31.8323353 112.641916,31.3437126 111.908982,30.9269461 C111.722156,30.8263473 111.348503,30.6538922 110.816766,30.4095808 C110.28503,30.1652695 109.897006,29.9640719 109.623952,29.805988 C108.560479,29.1305389 108.028743,28.2826347 108.028743,27.2766467 C108.028743,26.457485 108.316168,25.7820359 108.905389,25.2359281 C109.494611,24.6754491 110.270659,24.4023952 111.233533,24.4023952 Z M79.0706587,27.2479042 C80.0479042,27.2479042 80.9964072,27.6646707 81.5137725,28.4694611 L81.5137725,28.4694611 L80.6371257,29.302994 C80.2203593,28.7137725 79.6742515,28.411976 78.9844311,28.411976 C78.2946108,28.411976 77.8778443,28.8287425 77.8778443,29.3461078 C77.8778443,29.748503 78.0934132,30.0502994 78.5245509,30.251497 L78.5245509,30.251497 L79.3724551,30.6251497 C79.8323353,30.811976 80.1772455,30.9700599 80.4071856,31.0994012 C81.2838323,31.5449102 81.7149701,32.1916168 81.7149701,33.039521 C81.7149701,33.7005988 81.4562874,34.2610778 80.9389222,34.7065868 C80.4215569,35.1520958 79.760479,35.3820359 78.9413174,35.3820359 C77.7916168,35.3820359 76.6706587,34.8215569 76.0814371,33.7149701 L76.0814371,33.7149701 L77.0730539,32.9532934 C77.5185629,33.7724551 78.2802395,34.1748503 78.9844311,34.1748503 C79.8035928,34.1748503 80.3497006,33.7005988 80.3497006,33.1113772 C80.3497006,32.708982 80.1197605,32.3784431 79.645509,32.1341317 C79.4874251,32.0479042 79.1568862,31.9041916 78.6826347,31.702994 C78.2083832,31.5017964 77.8922156,31.3580838 77.7341317,31.2718563 C76.9437126,30.8407186 76.5556886,30.2227545 76.5556886,29.4035928 C76.5556886,28.7856287 76.7856287,28.2682635 77.245509,27.8658683 C77.7053892,27.4491018 78.308982,27.2479042 79.0706587,27.2479042 Z M126.256287,27.2479042 C127.233533,27.2479042 128.182036,27.6646707 128.699401,28.4694611 L128.699401,28.4694611 L127.822754,29.302994 C127.405988,28.7137725 126.85988,28.411976 126.17006,28.411976 C125.48024,28.411976 125.063473,28.8287425 125.063473,29.3461078 C125.063473,29.748503 125.279042,30.0502994 125.71018,30.251497 L125.71018,30.251497 L126.558084,30.6251497 C127.017964,30.811976 127.362874,30.9700599 127.592814,31.0994012 C128.469461,31.5449102 128.900599,32.1916168 128.900599,33.039521 C128.900599,33.7005988 128.641916,34.2610778 128.124551,34.7065868 C127.607186,35.1520958 126.946108,35.3820359 126.126946,35.3820359 C124.977246,35.3820359 123.856287,34.8215569 123.267066,33.7149701 L123.267066,33.7149701 L124.258683,32.9532934 C124.704192,33.7724551 125.465868,34.1748503 126.17006,34.1748503 C126.989222,34.1748503 127.535329,33.7005988 127.535329,33.1113772 C127.535329,32.708982 127.305389,32.3784431 126.831138,32.1341317 C126.673054,32.0479042 126.342515,31.9041916 125.868263,31.702994 C125.394012,31.5017964 125.077844,31.3580838 124.91976,31.2718563 C124.129341,30.8407186 123.741317,30.2227545 123.741317,29.4035928 C123.741317,28.7856287 123.971257,28.2682635 124.431138,27.8658683 C124.891018,27.4491018 125.494611,27.2479042 126.256287,27.2479042 Z M71.439521,27.3197605 C72.5317365,27.3197605 73.4227545,27.6646707 74.1125749,28.3688623 C74.8167665,29.0730539 75.1616766,30.0215569 75.1616766,31.2143713 C75.1616766,31.3005988 75.1511182,31.4818526 75.1300012,31.7671828 L75.1185629,31.9185629 L68.9820359,31.9185629 C69.211976,33.2263473 70.0742515,34.1173653 71.6838323,34.1173653 C72.5269461,34.1173653 73.4908184,33.8275449 74.1880156,33.3807385 L74.3712575,33.2550898 L74.960479,34.3041916 C74.1988024,34.8934132 72.9341317,35.3820359 71.6550898,35.3820359 C68.7520958,35.3820359 67.5449102,33.3269461 67.5449102,31.3293413 C67.5449102,30.1652695 67.9041916,29.2167665 68.6227545,28.4550898 C69.3556886,27.6934132 70.2898204,27.3197605 71.439521,27.3197605 Z M61.5760479,24.5892216 C63.0850299,24.5892216 64.2634731,25.0634731 65.1401198,26.0263473 C66.0167665,26.9892216 66.4622754,28.2826347 66.4622754,29.9209581 C66.4622754,31.5449102 66.0167665,32.8383234 65.1113772,33.7868263 C64.2760479,34.6760479 63.1502058,35.1484469 61.7220095,35.2040232 L61.4323353,35.2095808 L57.6239521,35.2095808 L57.6239521,24.5892216 L61.5760479,24.5892216 Z M153.82994,27.3053892 C154.764072,27.3053892 155.511377,27.6071856 156.071856,28.2107784 C156.632335,28.8 156.905389,29.6047904 156.905389,30.6251497 L156.905389,30.6251497 L156.905389,35.2095808 L155.525749,35.2095808 L155.525749,30.8407186 C155.525749,29.4035928 154.821557,28.5844311 153.671856,28.5844311 C152.464671,28.5844311 151.616766,29.5041916 151.616766,30.8694611 L151.616766,30.8694611 L151.616766,35.2095808 L150.251497,35.2095808 L150.251497,30.8694611 C150.251497,29.4323353 149.532934,28.5844311 148.383234,28.5844311 C147.176048,28.5844311 146.313772,29.5041916 146.313772,30.8982036 L146.313772,30.8982036 L146.313772,35.2095808 L144.934132,35.2095808 L144.934132,27.5065868 L146.28503,27.5065868 L146.28503,28.6419162 C146.74491,27.794012 147.592814,27.291018 148.613174,27.3053892 C149.647904,27.3053892 150.610778,27.8371257 151.027545,28.742515 C151.54491,27.8658683 152.622754,27.3053892 153.82994,27.3053892 Z M99.4922156,27.3053892 C100.354491,27.3053892 101.073054,27.5784431 101.662275,28.1389222 C102.251497,28.6994012 102.538922,29.4898204 102.538922,30.5389222 L102.538922,30.5389222 L102.538922,35.2095808 L101.173653,35.2095808 L101.173653,30.9269461 C101.173653,29.4323353 100.368862,28.5844311 99.2047904,28.5844311 C98.5868263,28.5844311 98.0694611,28.8 97.6670659,29.245509 C97.2790419,29.691018 97.0778443,30.251497 97.0778443,30.9413174 L97.0778443,30.9413174 L97.0778443,35.2095808 L95.6982036,35.2095808 L95.6982036,27.5065868 L97.0491018,27.5065868 L97.0491018,28.5988024 C97.5377246,27.7365269 98.3568862,27.3053892 99.4922156,27.3053892 Z M84.6898204,27.5065868 L84.6898204,35.2095808 L83.3101796,35.2095808 L83.3101796,27.5065868 L84.6898204,27.5065868 Z M90.1413174,28.5700599 C89.3796407,28.5700599 88.7616766,28.8287425 88.2586826,29.3461078 C87.7556886,29.8491018 87.5113772,30.4958084 87.5113772,31.2718563 C87.5113772,32.0479042 87.7556886,32.6946108 88.2586826,33.211976 C88.7616766,33.7293413 89.3796407,33.988024 90.1413174,33.988024 C90.902994,33.988024 91.5209581,33.7293413 92.0239521,33.211976 C92.5269461,32.6946108 92.7712575,32.0479042 92.7712575,31.2718563 C92.7712575,30.4958084 92.5269461,29.8491018 92.0239521,29.3461078 C91.5209581,28.8287425 90.902994,28.5700599 90.1413174,28.5700599 Z M61.4898204,25.954491 L59.0610778,25.954491 L59.0610778,33.8443114 L61.4898204,33.8443114 C62.5820359,33.8443114 63.4299401,33.4706587 64.0479042,32.7377246 C64.6658683,31.9904192 64.9676647,31.0419162 64.9676647,29.8778443 C64.9676647,28.7281437 64.6658683,27.794012 64.0479042,27.0610778 C63.4299401,26.3281437 62.5820359,25.954491 61.4898204,25.954491 Z M139.588024,28.5413174 C138.380838,28.5413174 137.448637,29.3662691 137.166397,30.5536997 L137.130539,30.7257485 L141.887425,30.7257485 C141.815569,29.3892216 140.852695,28.5413174 139.588024,28.5413174 Z M71.439521,28.5413174 C70.2323353,28.5413174 69.3001336,29.3662691 69.0178939,30.5536997 L68.9820359,30.7257485 L73.7389222,30.7257485 C73.6670659,29.3892216 72.7041916,28.5413174 71.439521,28.5413174 Z M84.0287425,24.4598802 C84.560479,24.4598802 85.005988,24.891018 85.005988,25.4227545 C85.005988,25.9976048 84.560479,26.4143713 84.0287425,26.4143713 C83.4538922,26.4143713 83.0227545,25.9976048 83.0227545,25.4227545 C83.0227545,24.8622754 83.4538922,24.4598802 84.0287425,24.4598802 Z M80.9532934,8.05748503 C81.868632,8.05748503 82.6615172,8.38810899 83.3319491,9.06066029 L83.497006,9.23592814 L83.497006,8.24431138 L85.2790419,8.24431138 L85.2790419,16.0479042 L83.497006,16.0479042 L83.497006,15.0850299 C82.8215569,15.8467066 81.9736527,16.2347305 80.9532934,16.2347305 C79.8323353,16.2347305 78.9125749,15.8467066 78.1796407,15.0562874 C77.4467066,14.2658683 77.0874251,13.2742515 77.0874251,12.1101796 C77.0874251,10.9461078 77.4467066,9.96886228 78.1796407,9.20718563 C78.9125749,8.44550898 79.8467066,8.05748503 80.9532934,8.05748503 Z M63.2191617,5.42754491 L67.2862275,16.0479042 L65.2023952,16.0479042 L64.3257485,13.6335329 L60.560479,13.6335329 L59.6838323,16.0479042 L57.6,16.0479042 L61.7101796,5.42754491 L63.2191617,5.42754491 Z M70.1892216,5.1257485 L70.1892216,9.2502994 C70.6347305,8.54610778 71.554491,8.04311377 72.6610778,8.04311377 C73.508982,8.04311377 74.2131737,8.33053892 74.8023952,8.89101796 C75.3916168,9.45149701 75.6934132,10.2419162 75.6934132,11.291018 L75.6934132,11.291018 L75.6934132,16.0479042 L73.8251497,16.0479042 L73.8251497,11.794012 C73.8251497,10.4862275 73.1497006,9.75329341 72.1149701,9.75329341 C71.0083832,9.75329341 70.2323353,10.6011976 70.2323353,11.8227545 L70.2323353,11.8227545 L70.2323353,16.0479042 L68.3640719,16.0479042 L68.3640719,5.1257485 L70.1892216,5.1257485 Z M81.2407186,9.76766467 C80.5652695,9.76766467 80.0191617,9.99760479 79.588024,10.457485 C79.1712575,10.9173653 78.9556886,11.4778443 78.9556886,12.1389222 C78.9556886,12.8143713 79.1712575,13.3748503 79.588024,13.8347305 C80.0191617,14.2946108 80.5652695,14.5245509 81.2407186,14.5245509 C81.9161677,14.5245509 82.4622754,14.2946108 82.8934132,13.8347305 C83.3245509,13.3748503 83.5401198,12.8143713 83.5401198,12.1389222 C83.5401198,11.4778443 83.3245509,10.9173653 82.8934132,10.457485 C82.4622754,9.99760479 81.9161677,9.76766467 81.2407186,9.76766467 Z M62.457485,8.22994012 L61.1353293,11.8658683 L63.7652695,11.8658683 L62.457485,8.22994012 Z" id="Combined-Shape" fill="#091D42" fill-rule="nonzero"></path>
            </g>
        </g>
    </g>
</svg>