<?xml version="1.0" encoding="UTF-8"?>
<svg width="240px" height="240px" viewBox="0 0 240 240" version="1.1" xmlns="http://www.w3.org/2000/svg" xmlns:xlink="http://www.w3.org/1999/xlink">
    <title>ahaui-logo-dark</title>
    <g id="Page-1" stroke="none" stroke-width="1" fill="none" fill-rule="evenodd">
        <g id="Artboard" transform="translate(-5871.000000, -1980.000000)">
            <g id="ahaui-logo-dark" transform="translate(5871.000000, 1980.000000)">
                <rect id="Rectangle" fill="#000000" x="0" y="0" width="240" height="240"></rect>
                <g id="AhaDS-fav" transform="translate(20.000000, 33.000000)">
                    <g id="Group" transform="translate(0.920245, 0.306748)">
                        <polygon id="Combined-Shape-Copy-22" fill="#375DE7" points="99.3219784 110.357754 143.46508 154.500855 131.987874 165.978062 99.3219784 133.312167 66.6560833 165.978062 55.1788769 154.500855"></polygon>
                        <polygon id="Combined-Shape-Copy-23" fill="#21388B" points="99.3219784 0 143.46508 44.1431015 131.987874 55.6203079 99.3219784 22.9544128 66.6560833 55.6203079 55.1788769 44.1431015"></polygon>
                        <polygon id="Combined-Shape-Copy-24" fill="#21388B" points="0 99.3219784 44.1431015 55.1788769 55.6203079 66.6560833 22.9544128 99.3219784 55.6203079 131.987874 44.1431015 143.46508"></polygon>
                        <polygon id="Combined-Shape-Copy-25" fill="#21388B" points="198.643957 99.3219784 154.500855 143.46508 143.023649 131.987874 175.689544 99.3219784 143.023649 66.6560833 154.500855 55.1788769"></polygon>
                    </g>
                </g>
            </g>
        </g>
    </g>
</svg>