<?xml version="1.0" encoding="UTF-8"?>
<svg width="240px" height="240px" viewBox="0 0 240 240" version="1.1" xmlns="http://www.w3.org/2000/svg" xmlns:xlink="http://www.w3.org/1999/xlink">
    <title>ahaui-logo-color</title>
    <g id="Page-1" stroke="none" stroke-width="1" fill="none" fill-rule="evenodd">
        <g id="Artboard" transform="translate(-6162.000000, -1980.000000)">
            <g id="ahaui-logo-color" transform="translate(6162.000000, 1980.000000)">
                <rect id="Rectangle" fill="#375DE7" x="0" y="0" width="240" height="240"></rect>
                <g id="AhaDS-fav-Copy-2" transform="translate(20.000000, 33.000000)" fill="#FFFFFF">
                    <g id="Group" transform="translate(0.920245, 0.306748)">
                        <polygon id="Combined-Shape-Copy-22" points="99.3219784 110.357754 143.46508 154.500855 131.987874 165.978062 99.3219784 133.312167 66.6560833 165.978062 55.1788769 154.500855"></polygon>
                        <path d="M110.635687,11.3137085 L143.46508,44.1431015 L143.46508,44.1431015 L131.987874,55.6203079 L99.3219784,22.9544128 L66.6560833,55.6203079 L55.1788769,44.1431015 L88.0082699,11.3137085 C94.2566586,5.06531983 104.387298,5.06531983 110.635687,11.3137085 Z" id="Combined-Shape-Copy-23"></path>
                        <path d="M11.3137085,88.0082699 L44.1431015,55.1788769 L44.1431015,55.1788769 L55.6203079,66.6560833 L22.9544128,99.3219784 L55.6203079,131.987874 L44.1431015,143.46508 L11.3137085,110.635687 C5.06531983,104.387298 5.06531983,94.2566586 11.3137085,88.0082699 Z" id="Combined-Shape-Copy-24"></path>
                        <path d="M187.330248,110.635687 L154.500855,143.46508 L154.500855,143.46508 L143.023649,131.987874 L175.689544,99.3219784 L143.023649,66.6560833 L154.500855,55.1788769 L187.330248,88.0082699 C193.578637,94.2566586 193.578637,104.387298 187.330248,110.635687 Z" id="Combined-Shape-Copy-25"></path>
                    </g>
                </g>
            </g>
        </g>
    </g>
</svg>