<svg height="118" viewBox="0 0 191 118" width="191" xmlns="http://www.w3.org/2000/svg" xmlns:xlink="http://www.w3.org/1999/xlink"><mask id="a" fill="#fff"><path d="m0 0h312v156h-312z" fill="#fff" fill-rule="evenodd"/></mask><g fill="none" fill-rule="evenodd" mask="url(#a)" transform="translate(-61 -20)"><g transform="translate(61 20)"><g fill="none" fill-rule="evenodd" transform="translate(0 36.286)"><path d="m57.623 1-.001 27.483h27.484v49.623h-49.623v-27.484h-27.483v-49.622z" stroke="#000" stroke-width=".559"/><g fill-rule="nonzero"><path d="m57.902 50.186v1.559h-.559v-1.56h.56zm-17.892.157v.56h-1.56v-.56zm-4.011 0v.56h-1.56v-.56h1.561zm2.005 0v.56h-1.559v-.56h1.56zm18.05 0v.56h-1.56v-.56zm-2.005 0v.56h-1.56v-.56zm-2.006 0v.56h-1.56v-.56zm-2.005 0v.56h-1.56v-.56zm-2.006 0v.56h-1.56v-.56zm-2.005 0v.56h-1.56v-.56zm-2.006 0v.56h-1.56v-.56zm-2.006 0v.56h-1.559v-.56h1.56zm15.887-2.163v1.56h-.559v-1.56h.56zm-22.14-.607v1.56h-.558v-1.56h.559zm22.14-1.398v1.559h-.559v-1.56h.56zm-22.14-.607v1.56h-.558v-1.56h.559zm22.14-1.399v1.56h-.559v-1.56h.56zm-22.14-.607v1.56h-.558v-1.56h.559zm22.14-1.398v1.559h-.559v-1.56h.56zm-22.14-.607v1.56h-.558v-1.56h.559zm22.14-1.399v1.56h-.559v-1.56h.56zm-22.14-.607v1.56h-.558v-1.56h.559zm22.14-1.398v1.559h-.559v-1.56h.56zm-22.14-.607v1.56h-.558v-1.56h.559zm22.14-1.399v1.56h-.559v-1.56h.56zm-22.14-.607v1.56h-.558v-1.56h.559zm22.14-1.398v1.558h-.559v-1.56h.56zm-22.14-.607v1.56h-.558v-1.56h.559zm22.14-1.399v1.56h-.559v-1.56h.56zm-22.14-.607v1.56h-.558v-1.56h.559zm22.14-1.398v1.559h-.559v-1.56h.56zm-22.14-.607v1.56h-.558v-1.56h.559zm0-2.006v.685h1v.56l-1-.001v.316h-.558v-1.56h.559zm23.062.686v.559h-1.56v-.56h1.56zm-2.006 0v.559h-1.56v-.56h1.56zm-2.005 0v.559h-1.56v-.56h1.56zm-2.006 0v.559h-1.56v-.56h1.56zm-2.005 0v.559h-1.56v-.56h1.56zm-2.006 0v.559h-1.56v-.56h1.56zm-2.005 0v.559h-1.56v-.56h1.56zm-2.006 0v.559h-1.56v-.56h1.56zm-2.006 0v.559h-1.559v-.56h1.56zm-2.005 0v.559h-1.56v-.56h1.56zm-2.006 0v.559h-1.558v-.56h1.56zm46.405 49.622v.56h-1.56v-.56zm-70.193 0v.56h-1.56v-.56zm2.005 0v.56h-1.559v-.56h1.56zm2.006 0v.56h-1.56v-.56zm2.005 0v.56h-1.559v-.56h1.56zm2.006 0v.56h-1.56v-.56zm2.005 0v.56h-1.559v-.56h1.56zm2.006 0v.56h-1.56v-.56zm2.005 0v.56h-1.558v-.56h1.56zm2.006 0v.56h-1.56v-.56zm2.005 0v.56h-1.559v-.56h1.56zm2.006 0v.56h-1.56v-.56zm2.005 0v.56h-1.559v-.56h1.56zm2.006 0v.56h-1.56v-.56zm2.006 0v.56h-1.56v-.56zm2.005 0v.56h-1.56v-.56zm2.006 0v.56h-1.56v-.56zm2.005 0v.56h-1.56v-.56zm2.006 0v.56h-1.56v-.56zm2.005 0v.56h-1.56v-.56zm2.006 0v.56h-1.56v-.56zm2.005 0v.56h-1.56v-.56zm2.006 0v.56h-1.56v-.56zm2.005 0v.56h-1.56v-.56zm2.006 0v.56h-1.56v-.56zm2.005 0v.56h-1.56v-.56zm2.006 0v.56h-1.56v-.56zm2.005 0v.56h-1.56v-.56zm2.006 0v.56h-1.56v-.56zm2.005 0v.56h-1.56v-.56zm2.006 0v.56h-1.56v-.56zm2.005 0v.56h-1.559v-.56h1.56zm2.006 0v.56h-1.56v-.56zm2.005 0v.56h-1.559v-.56h1.56zm2.006 0v.56h-1.56v-.56zm2.005 0v.56h-1.559v-.56h1.56zm-72.198 0v.56h-1.56v-.56zm2.005 0v.56h-1.559v-.56h1.56zm-4.01 0v.56h-1.56v-.56zm76.422-1.792v1.559h-.56v-1.56h.56zm-77.106-.53v1.56h-.56v-1.56zm77.106-1.476v1.56h-.56v-1.56zm-77.106-.53v1.56h-.56v-1.56zm77.106-1.476v1.56h-.56v-1.56zm-77.106-.529v1.56h-.56v-1.56zm77.106-1.476v1.56h-.56v-1.56zm-77.106-.53v1.56h-.56v-1.56zm77.106-1.476v1.56h-.56v-1.56zm-77.106-.529v1.56h-.56v-1.56zm77.106-1.476v1.56h-.56v-1.56zm-77.106-.53v1.56h-.56v-1.56zm77.106-1.476v1.56h-.56v-1.56zm-77.106-.529v1.56h-.56v-1.56zm77.106-1.476v1.56h-.56v-1.56zm-77.106-.53v1.56h-.56v-1.56zm77.106-1.476v1.56h-.56v-1.56zm-77.106-.529v1.56h-.56v-1.56zm77.106-1.476v1.56h-.56v-1.56zm-77.106-.53v1.56h-.56v-1.56zm77.106-1.476v1.56h-.56v-1.56zm-77.106-.528v1.56h-.56v-1.56zm77.106-1.476v1.56h-.56v-1.56zm-77.106-.53v1.56h-.56v-1.56zm77.106-1.476v1.56h-.56v-1.56zm-77.106-.53v1.56h-.56v-1.56zm77.106-1.476v1.56h-.56v-1.56zm-77.106-.53v1.56h-.56v-1.56zm77.106-1.476v1.56h-.56v-1.56zm-77.106-.529v1.56h-.56v-1.56zm77.106-1.476v1.56h-.56v-1.56zm-77.106-.531v1.56h-.56v-1.56zm77.106-1.476v1.56h-.56v-1.56zm-77.106-.528v1.56h-.56v-1.56zm77.106-1.476v1.56h-.56v-1.56zm-77.106-.53v1.56h-.56v-1.56zm77.106-1.476v1.56h-.56v-1.56zm-77.106-.529v1.56h-.56v-1.56zm77.106-1.476v1.559h-.56v-1.56h.56zm-77.106-.53v1.56h-.56v-1.56zm77.106-1.476v1.56h-.56v-1.56zm-77.106-.529v1.56h-.56v-1.56zm77.106-1.476v1.559h-.56v-1.56h.56zm-77.106-.53v1.56h-.56v-1.56zm77.106-1.476v1.56h-.56v-1.56zm-77.106-.529v1.56h-.56v-1.56zm77.106-1.476v1.559h-.56v-1.56h.56zm-77.106-.53v1.56h-.56v-1.56zm77.106-1.476v1.56h-.56v-1.561h.56zm-77.106-.529v1.56h-.56v-1.56zm77.106-1.476v1.559h-.56v-1.56h.56zm-77.106-.53v1.56h-.56v-1.56zm77.106-1.476v1.56h-.56v-1.56zm-77.106-.529v1.56h-.56v-1.56zm77.106-1.476v1.559h-.56v-1.56h.56zm-77.106-.53v1.56h-.56v-1.56zm77.106-1.476v1.56h-.56v-1.56zm-77.106-.529v1.56h-.56v-1.56zm77.106-1.476v1.559h-.56v-1.56h.56zm-77.106-.53v1.56h-.56v-1.56zm77.106-1.476v1.56h-.56v-1.56zm-77.106-.528v1.56h-.56v-1.56zm77.106-1.476v1.559h-.56v-1.56h.56zm-77.106-.53v1.56h-.56v-1.56zm77.106-1.476v1.56h-.56v-1.56zm-77.106-.53v1.56h-.56v-1.56zm77.106-1.476v1.559h-.56v-1.561h.56zm-77.106-.53v1.56h-.56v-1.56zm77.106-1.476v1.56h-.56v-1.56zm-77.106-.53v1.56h-.56v-1.56zm77.106-1.475v1.559h-.56v-1.56h.56zm-77.106-.531v1.56h-.56v-1.56zm77.106-1.476v1.56h-.56v-1.56zm-77.106-.529v1.56h-.56v-1.56zm77.106-1.475v1.56h-.56v-1.561h.56zm-77.106-.53v1.56h-.56v-1.56zm77.21-.58v.56h-1.56v-.56zm-2.006 0v.56h-1.56v-.56zm-2.006 0v.56h-1.56v-.56zm-2.005 0v.56h-1.56v-.56zm-2.006 0v.56h-1.56v-.56zm-2.005 0v.56h-1.56v-.56zm-2.006 0v.56h-1.56v-.56zm-2.005 0v.56h-1.56v-.56zm-2.006 0v.56h-1.56v-.56zm-2.005 0v.56h-1.56v-.56zm-2.006 0v.56h-1.56v-.56zm-2.005 0v.56h-1.56v-.56zm-2.006 0v.56h-1.56v-.56zm-2.006 0v.56h-1.559v-.56h1.56zm-2.005 0v.56h-1.56v-.56zm-2.006 0v.56h-1.559v-.56h1.56zm-2.005 0v.56h-1.56v-.56zm-2.006 0v.56h-1.559v-.56h1.56zm-2.005 0v.56h-1.56v-.56zm-2.006 0v.56h-1.559v-.56h1.56zm-2.005 0v.56h-1.56v-.56zm-2.006 0v.56h-1.559v-.56h1.56zm-2.005 0v.56h-1.56v-.56zm-2.006 0v.56h-1.559v-.56h1.56zm-2.005 0v.56h-1.56v-.56zm-2.006 0v.56h-1.559v-.56h1.56zm-2.005 0v.56h-1.56v-.56zm-2.006 0v.56h-1.559v-.56h1.56zm-2.005 0v.56h-1.56v-.56zm-2.006 0v.56h-1.559v-.56h1.56zm-2.005 0v.56h-1.56v-.56zm-2.006 0v.56h-1.558v-.56h1.56zm-2.005 0v.56h-1.56v-.56zm-2.006 0v.56h-1.56v-.56zm-2.005 0v.56h-1.56v-.56zm-2.006 0v.56h-1.56v-.56zm-2.005 0v.56h-1.56v-.56zm-2.006 0v.56h-1.56v-.56zm-2.005 0v.56h-1.56v-.56z" fill="#000"/><rect fill="#dfe1e6" height="3" rx="1.5" width="190.5" y="78"/></g></g><path d="m64.522 55.708 6.365-8.76-6.812 9.375" fill="none" stroke="#375de7" stroke-width=".783"/><g fill-rule="nonzero"><path d="m60.459 52.756 8.126 5.904-10.667 6.138z" fill="#375de7"/><path d="m153.166 97.937h28.834v16.903h-28.834z" fill="#c1c7d0"/><path d="m124.331 78.051h43.749v36.789h-43.749z" fill="#375de7"/><path d="m97.486 90.977h26.846v23.863h-26.846z" fill="#ebecf0"/><path d="m130.297 61.402 26.113-28.092c3.283 8.329 5.757 14.414 7.422 18.254 1.665 3.841 4.075 9.025 7.232 15.551l-40.766-5.712z" fill="#375de7"/></g><g fill="none" fill-rule="evenodd" stroke="#000" stroke-width=".705" transform="translate(85)"><path d="m14.743.497c12.95 5.426 23.383 9.127 31.3 11.101 11.877 2.961 32.47 5.123 32.47 6.397 0 .955-1.63 2.035-3.353 2.484-3.19.832-7.137.406-7.137.406s1.342.79 1.648 2.055c.11.452-.079 1.261-.565 2.426 1.704.675 2.724 1.51 3.062 2.506s.19 2.616-.445 4.86c.738 1.293 1.15 2.295 1.238 3.005.539 4.378 1.289 7.472 1.827 10.05.505 2.422 2.63 7.032 1.106 7.032s-5.962-2.065-6.788-5.79-1.594-8.847-3.903-9.838c-2.31-.99-17.07-2.45-19.16 0-2.089 2.45 3.905 21.887 3.905 24.197s-1.432 3.578-2.406 3.578c-.975 0-4.423-10.499-17.296-19.956-8.581-6.304-18.479-11.589-29.692-15.854" fill="#fff" fill-rule="nonzero" stroke-linecap="square" stroke-linejoin="round"/><path d="m35.678 26.517c.975-3.086 2.482-5.755 4.522-8.007 1.9618056-2.1782549 4.1007958-4.1901432 6.395-6.015m4.907 4.59c3.328 1.102 5.876 1.846 7.644 2.233 1.769.388 4.727.91 8.877 1.567m-18.586.401c12.714 2.457 19.214 3.794 19.5 4.011m-24.66-.772c.303 0 9.452 2.736 27.446 8.206" stroke-linecap="round"/></g></g></g></svg>
