<?xml version="1.0" encoding="UTF-8"?>
<svg width="24px" height="24px" viewBox="0 0 24 24" version="1.1" xmlns="http://www.w3.org/2000/svg" xmlns:xlink="http://www.w3.org/1999/xlink">
    <title>bot</title>
    <g id="bot" stroke="none" stroke-width="1" fill="none" fill-rule="evenodd">
        <path d="M12.0000215,15 C15.1663678,15 18.0160527,15.874358 20.000214,17.2691088 C18.2074518,19.5296697 15.2919947,21 12.0000215,21 C8.70804839,21 5.79259131,19.5296697 4,17.2697423 C5.98388639,15.8743899 8.83361751,15 12.0000215,15 Z M12,3 C12.5522847,3 13,3.44771525 13,4 L12.999,5 L16,5 C17.1045695,5 18,5.8954305 18,7 L18,11 C18,12.1045695 17.1045695,13 16,13 L8,13 C6.8954305,13 6,12.1045695 6,11 L6,7 C6,5.8954305 6.8954305,5 8,5 L10.999,5 L11,4 C11,3.44771525 11.4477153,3 12,3 Z M9.5,7 C8.67157288,7 8,7.67157288 8,8.5 C8,9.32842712 8.67157288,10 9.5,10 C10.3284271,10 11,9.32842712 11,8.5 C11,7.67157288 10.3284271,7 9.5,7 Z M14.5,7 C13.6715729,7 13,7.67157288 13,8.5 C13,9.32842712 13.6715729,10 14.5,10 C15.3284271,10 16,9.32842712 16,8.5 C16,7.67157288 15.3284271,7 14.5,7 Z" id="Combined-Shape" fill="#091D42"></path>
    </g>
</svg>