<svg height="24" viewBox="0 0 24 24" width="24" xmlns="http://www.w3.org/2000/svg"><path d="m17.9929913 3.40560902c.3359614.30822992.5070087.71970814.5070087 1.20783183l-.0001907 14.36970275c-.0197667.6254168-.1775581 1.1071717-.4919857 1.430792-.3647368.375346-.8592038.5687789-1.4750132.5860644h-9.16379138c-.61019672-.0195619-1.10556848-.213217-1.46629664-.5868201-.29622271-.306618-.42106028-.7693509-.40056338-1.3581386v-11.66680584c0-.09683112.03676297-.18976624.10233002-.25868567l3.81935831-4.01463825c.06670535-.07011593.15770976-.10958471.25267291-.10958471h7.03664156c.5138942-.03428496.9469209.09667535 1.2798295.40028219zm-1.2434876.3353792-.0245184.00087938-6.6889853-.0008676.0001749 3.05992664c.0047575.23010674-.04745318.43355523-.16151256.59612112l-.07589653.09251982c-.16187019.17043853-.38621457.25989065-.65800039.2806727l-.0260965.00099638-2.90266892-.00023666-.00006131 11.2971855c-.01433065.4162544.05809523.684714.19235369.823684.2236064.2315872.54640718.3577794.97559551.3717266h9.14324421c.4352939-.0123153.7568245-.1380964.9846403-.3725387.1680378-.1729506.2680735-.478371.2822217-.9199817v-14.35763485c0-.28127675-.0870386-.49066021-.2665796-.65538348-.1828601-.16676399-.4332728-.24153312-.7739108-.21706915zm-4.7495037 5.70901178c.1932997 0 .35.15670034.35.35v3.15h3.15c.1932997 0 .35.1567003.35.35 0 2.1262963-1.7237037 3.85-3.85 3.85-2.12629629 0-3.85-1.7237037-3.85-3.85s1.72370371-3.85 3.85-3.85zm-.35.7192251-.1801259.0251924c-1.48727671.2520498-2.6198741 1.54655-2.6198741 3.1055825 0 1.739697 1.410303 3.15 3.15 3.15 1.6213938 0 2.9566694-1.2250173 3.1307749-2.8h-3.1307749c-.1932997 0-.35-.1567003-.35-.35zm1.5166667-.7192251c1.481964 0 2.6833333 1.2013693 2.6833333 2.6833333 0 .1932997-.1567003.35-.35.35h-2.3333333c-.1932997 0-.35-.1567003-.35-.35v-2.3333333c0-.19329966.1567003-.35.35-.35zm.35.7307844v1.6025489h1.6025489c-.1450799-.8148239-.787725-1.457469-1.6025489-1.6025489zm-4.1906667-5.9157844-2.634 2.769 2.40857615.00069589c.07934176-.0071174.13296012-.02272571.16627373-.04215449l.02674605-.02052928c.02034247-.02131589.03458887-.06569105.03265475-.16318873z" fill="#091d42" fill-rule="evenodd"/></svg>