<svg height="24" viewBox="0 0 24 24" width="24" xmlns="http://www.w3.org/2000/svg"><path d="m18.3667969 8.77963831c-.2847657-2.68631391-2.5207032-4.77963831-5.2417969-4.77963831-1.8 0-3.38554687.91448984-4.33828125 2.31123019-.29179688-.12145569-.61171875-.18932798-.94570313-.18932798-1.37460937 0-2.4890625 1.22884572-2.51015625 2.62201384-1.40273437.4536727-2.33085937 1.84684085-2.33085937 3.31145345 0 1.7932574 1.43085937 3.3757535 3.19570312 3.3757535h5.34726568v-5.0368386c0-.2572002.2039062-.46438933.4570312-.46438933s.4570312.20718913.4570312.46438933v5.0368386h5.3472657c1.7648437 0 3.1957031-1.5824961 3.1957031-3.3757535 0-1.596785-1.1355469-3.00424202-2.6332031-3.27573119zm-6.8238281 9.64858229-1.68398443-1.6860907c-.17929687-.1786113-.46757812-.1786113-.64687499.0035723-.17578126.1821835-.17578126.475106.00351562.6572895l2.4609375 2.4648359c.0878906.0857335.2039062.1321724.3199219.1321724.0597656 0 .1195312-.0107167.1757812-.0357223.0527344-.0214333.1019531-.0571556.1441406-.0964501l2.4609376-2.4648359c.1792968-.1786113.1828125-.475106.0035156-.6572895-.1757813-.1821836-.4675782-.1857558-.646875-.0035723l-1.6769532 1.6860907v-2.9970976h-.9140624z" fill="#091d42" fill-rule="evenodd"/></svg>