<?xml version="1.0" encoding="UTF-8"?>
<svg width="32px" height="32px" viewBox="0 0 32 32" version="1.1"
    xmlns="http://www.w3.org/2000/svg"
    xmlns:xlink="http://www.w3.org/1999/xlink">
    <title>ahaui-fav</title>
    <g id="Page-1" stroke="none" stroke-width="1" fill="none" fill-rule="evenodd">
        <g id="Artboard" transform="translate(-5301.000000, -2167.000000)">
            <g id="ahaui-fav" transform="translate(5301.000000, 2167.000000)">
                <rect id="Rectangle" x="0" y="0" width="32" height="32"></rect>
                <g id="Group" transform="translate(0.000000, 2.000000)">
                    <polygon id="Combined-Shape-Copy-22" fill="#375DE7" points="15.9722944 17.7469937 23.0710918 24.8457912 21.2254045 26.6914786 15.9722944 21.4383684 10.7191842 26.6914786 8.87349686 24.8457912"></polygon>
                    <polygon id="Combined-Shape-Copy-23" fill="#21388B" points="15.9722944 0 23.0710918 7.09879749 21.2254045 8.94448484 15.9722944 3.69137469 10.7191842 8.94448484 8.87349686 7.09879749"></polygon>
                    <polygon id="Combined-Shape-Copy-24" fill="#21388B" points="0 15.9722944 7.09879749 8.87349686 8.94448484 10.7191842 3.69137469 15.9722944 8.94448484 21.2254045 7.09879749 23.0710918"></polygon>
                    <polygon id="Combined-Shape-Copy-25" fill="#21388B" points="31.9445887 15.9722944 24.8457912 23.0710918 23.0001039 21.2254045 28.253214 15.9722944 23.0001039 10.7191842 24.8457912 8.87349686"></polygon>
                </g>
            </g>
        </g>
    </g>
</svg>