<svg height="24" viewBox="0 0 24 24" width="24" xmlns="http://www.w3.org/2000/svg"><g fill="none"><path d="m23.076 7.486h-11.098a4.491 4.491 0 0 0 -3.923 6.687l-5.549-9.521c4.042-5.231 11.56-6.195 16.79-2.154a11.97 11.97 0 0 1 3.78 4.988z" fill="#f44336"></path><path d="m23.954 11.978c-.005 6.612-5.364 11.97-11.976 11.976-.501.002-1.001-.031-1.497-.1l5.389-9.63a4.502 4.502 0 0 0 -1.647-6.139 4.45 4.45 0 0 0 -2.235-.599h11.088a11.81 11.81 0 0 1 .878 4.492z" fill="#ffc107"></path><path d="m15.87 14.223-5.39 9.631h-.01c-6.557-.828-11.202-6.817-10.373-13.374a11.97 11.97 0 0 1 2.41-5.827l5.55 9.521.03.05a4.491 4.491 0 0 0 7.784 0z" fill="#4caf50"></path><path d="m15.87 14.223a4.491 4.491 0 0 1 -7.785 0l-.03-.05a4.491 4.491 0 0 1 3.923-6.687h.01a4.45 4.45 0 0 1 2.235.6 4.502 4.502 0 0 1 1.647 6.137z" fill="#f44336"></path><path d="m15.87 14.223a4.491 4.491 0 0 1 -7.785 0l-.03-.05a4.491 4.491 0 0 1 3.923-6.687h.01a4.45 4.45 0 0 1 2.235.6 4.502 4.502 0 0 1 1.647 6.137z" fill="#2196f3"></path><path d="m11.96 16.968c-.87 0-1.724-.23-2.478-.665a4.99 4.99 0 0 1 2.495-9.316 4.99 4.99 0 0 1 4.326 7.486 5.018 5.018 0 0 1 -4.342 2.495zm.027-8.983a3.981 3.981 0 0 0 -3.473 1.997 3.996 3.996 0 0 0 6.923 3.992 3.992 3.992 0 0 0 -3.45-5.989z" fill="#fafafa"></path></g></svg>
