<?xml version="1.0" encoding="UTF-8"?>
<svg width="24px" height="24px" viewBox="0 0 24 24" version="1.1" xmlns="http://www.w3.org/2000/svg" xmlns:xlink="http://www.w3.org/1999/xlink">
    <!-- Generator: Sketch 61.2 (89653) - https://sketch.com -->
    <title>Icon/Categories/Time/calendar</title>
    <desc>Created with Sketch.</desc>
    <g id="Icon/Categories/Time/calendar" stroke="none" stroke-width="1" fill="none" fill-rule="evenodd">
        <path d="M19.2692308,4.41666667 L17.5384615,4.41666667 L17.5384615,5.47916667 C17.5384615,5.67395833 17.3826923,5.83333333 17.1923077,5.83333333 L16.5,5.83333333 C16.3096154,5.83333333 16.1538462,5.67395833 16.1538462,5.47916667 L16.1538462,4.41666667 L7.84615385,4.41666667 L7.84615385,5.47916667 C7.84615385,5.67395833 7.69038462,5.83333333 7.5,5.83333333 L6.80769231,5.83333333 C6.61730769,5.83333333 6.46153846,5.67395833 6.46153846,5.47916667 L6.46153846,4.41666667 L4.73076923,4.41666667 C3.77884615,4.41666667 3,5.21354167 3,6.1875 L3,18.2291667 C3,19.203125 3.77884615,20 4.73076923,20 L19.2692308,20 C20.2211538,20 21,19.203125 21,18.2291667 L21,6.1875 C21,5.21354167 20.2211538,4.41666667 19.2692308,4.41666667 Z M19.6153846,17.6979167 C19.6153846,18.1848958 19.2259615,18.5833333 18.75,18.5833333 L5.25,18.5833333 C4.77403846,18.5833333 4.38461538,18.1848958 4.38461538,17.6979167 L4.38461538,9.72916667 C4.38461538,9.534375 4.54038462,9.375 4.73076923,9.375 L19.2692308,9.375 C19.4596154,9.375 19.6153846,9.534375 19.6153846,9.72916667 L19.6153846,17.6979167 Z M7.84615385,3.35416667 C7.84615385,3.159375 7.69038462,3 7.5,3 L6.80769231,3 C6.61730769,3 6.46153846,3.159375 6.46153846,3.35416667 L6.46153846,4.41666667 L7.84615385,4.41666667 L7.84615385,3.35416667 Z M7,16 L7,18 L5,18 L5,16 L7,16 Z M10,16 L10,18 L8,18 L8,16 L10,16 Z M13,16 L13,18 L11,18 L11,16 L13,16 Z M16,16 L16,18 L14,18 L14,16 L16,16 Z M19,16 L19,18 L17,18 L17,16 L19,16 Z M7,13 L7,15 L5,15 L5,13 L7,13 Z M10,13 L10,15 L8,15 L8,13 L10,13 Z M13,13 L13,15 L11,15 L11,13 L13,13 Z M16,13 L16,15 L14,15 L14,13 L16,13 Z M19,13 L19,15 L17,15 L17,13 L19,13 Z M7,10 L7,12 L5,12 L5,10 L7,10 Z M10,10 L10,12 L8,12 L8,10 L10,10 Z M13,10 L13,12 L11,12 L11,10 L13,10 Z M16,10 L16,12 L14,12 L14,10 L16,10 Z M19,10 L19,12 L17,12 L17,10 L19,10 Z M17.1923077,3 C17.3826923,3 17.5384615,3.159375 17.5384615,3.35416667 L17.5384615,3.35416667 L17.5384615,4.41666667 L16.1538462,4.41666667 L16.1538462,3.35416667 C16.1538462,3.159375 16.3096154,3 16.5,3 L16.5,3 Z" id="Shape" fill="#091D42"></path>
    </g>
</svg>