<?xml version="1.0" encoding="UTF-8"?>
<svg width="24px" height="24px" viewBox="0 0 24 24" version="1.1" xmlns="http://www.w3.org/2000/svg" xmlns:xlink="http://www.w3.org/1999/xlink">
    <!-- Generator: Sketch 63.1 (92452) - https://sketch.com -->
    <title>Icon/Categories/Alert/helpCircleOutline</title>
    <desc>Created with Sketch.</desc>
    <g id="Icon/Categories/Alert/helpCircleOutline" stroke="none" stroke-width="1" fill="none" fill-rule="evenodd">
        <path d="M12,3 C16.9716346,3 21,7.02836538 21,12 C21,16.9716346 16.9716346,21 12,21 C7.02836538,21 3,16.9716346 3,12 C3,7.02836538 7.02836538,3 12,3 Z M12,4.21153846 C9.91875,4.21153846 7.96298077,5.02067308 6.49182692,6.49182692 C5.02067308,7.96298077 4.21153846,9.91875 4.21153846,12 C4.21153846,14.08125 5.02067308,16.0370192 6.49182692,17.5081731 C7.96298077,18.9793269 9.91875,19.7884615 12,19.7884615 C14.08125,19.7884615 16.0370192,18.9793269 17.5081731,17.5081731 C18.9793269,16.0370192 19.7884615,14.08125 19.7884615,12 C19.7884615,9.91875 18.9793269,7.96298077 17.5081731,6.49182692 C16.0370192,5.02067308 14.08125,4.21153846 12,4.21153846 Z M11.8182692,14.3711538 C12.3331731,14.3711538 12.7485577,14.7605769 12.7485577,15.2625 C12.7485577,15.7644231 12.3331731,16.1538462 11.8182692,16.1538462 C11.3033654,16.1538462 10.8923077,15.7644231 10.8923077,15.2625 C10.8923077,14.7649038 11.3076923,14.3711538 11.8182692,14.3711538 Z M12.0302885,7.84615385 C13.6528846,7.84615385 14.7692308,8.74615385 14.7692308,10.0399038 C14.7692308,10.8966346 14.3538462,11.4894231 13.5533654,11.9610577 L13.5087875,11.9871415 C12.7903713,12.4109781 12.5451923,12.7293462 12.5451923,13.2721154 L12.5451923,13.6139423 L11.04375,13.6139423 L11.0307692,13.2418269 C10.9579471,12.3593942 11.2625577,11.8077453 12.0285693,11.3517692 L12.0519231,11.3379808 C12.7831731,10.9009615 13.0903846,10.6240385 13.0903846,10.0875 C13.0903846,9.55096154 12.5711538,9.15721154 11.9264423,9.15721154 C11.2730769,9.15721154 10.8014423,9.58125 10.7668269,10.2216346 L9.23076923,10.2216346 C9.26105769,8.82836538 10.2908654,7.84615385 12.0302885,7.84615385 Z" id="Shape" fill="#091D42"></path>
    </g>
</svg>