<?xml version="1.0" encoding="UTF-8"?>
<svg width="24px" height="24px" viewBox="0 0 24 24" version="1.1" xmlns="http://www.w3.org/2000/svg" xmlns:xlink="http://www.w3.org/1999/xlink">
    <!-- Generator: Sketch 63 (92445) - https://sketch.com -->
    <title>Icon/Categories/Shopping/bag</title>
    <desc>Created with Sketch.</desc>
    <g id="Icon/Categories/Shopping/bag" stroke="none" stroke-width="1" fill="none" fill-rule="evenodd">
        <path d="M18.9966002,19.3689643 L17.6778294,7.50301065 C17.6455677,7.21268001 17.3889313,6.99238121 17.0830237,6.99238121 L15.3030925,6.99238121 L15.3030925,5.15225293 C15.3031299,3.41408644 13.8213305,2 12.000016,2 C10.1787015,2 8.69690209,3.41408644 8.69690209,5.15225293 L8.69690209,6.99238121 L6.91697088,6.99238121 C6.61106331,6.99238121 6.35442693,7.21268001 6.32216514,7.50301065 L5.00339436,19.3689643 C4.96597367,19.7056737 5.24272226,20 5.59820009,20 L18.4018319,20 C18.7566368,20 19.0340957,19.7062802 18.9966002,19.3689643 Z M9.89316779,5.15225293 C9.89316779,4.04358805 10.8382925,3.14162944 12.000016,3.14162944 C13.1617395,3.14162944 14.1068642,4.04358805 14.1068642,5.15225293 L14.1068642,6.99238121 L9.89316779,6.99238121 L9.89316779,5.15225293 Z M9.51548428,10.136393 C9.16695974,10.136393 8.88445412,9.86679008 8.88445412,9.53418348 C8.88445412,9.20157688 9.16695974,8.93197395 9.51548428,8.93197395 C9.86400881,8.93197395 10.1465144,9.20161255 10.1465144,9.53418348 C10.1465144,9.8667544 9.86400881,10.136393 9.51548428,10.136393 Z M14.4845103,10.136393 C14.1359858,10.136393 13.8534802,9.86679008 13.8534802,9.53418348 C13.8534802,9.20157688 14.1359858,8.93197395 14.4845103,8.93197395 C14.8330348,8.93197395 15.1155405,9.20161255 15.1155405,9.53418348 C15.1155405,9.8667544 14.8330348,10.136393 14.4845103,10.136393 Z" id="Shape" fill="#091D42"></path>
    </g>
</svg>