<?xml version="1.0" encoding="UTF-8"?>
<svg width="24px" height="24px" viewBox="0 0 24 24" version="1.1" xmlns="http://www.w3.org/2000/svg" xmlns:xlink="http://www.w3.org/1999/xlink">
    <!-- Generator: Sketch 63 (92445) - https://sketch.com -->
    <title>Icon/Categories/Shopping/bill</title>
    <desc>Created with Sketch.</desc>
    <g id="Icon/Categories/Shopping/bill" stroke="none" stroke-width="1" fill="none" fill-rule="evenodd">
        <path d="M17.4355527,3 L6.56441206,3 C6.2527155,3 6,3.25529378 6,3.57017036 L6,20.42911 C6,20.906592 6.54889072,21.1729685 6.91776928,20.8737003 L8.06786467,19.9409016 L8.95709586,20.833539 C9.17231324,21.0495622 9.51808617,21.0550858 9.73993539,20.8460114 L10.6816216,19.9585769 L11.6131837,20.8442653 C11.8354562,21.0555847 12.183769,21.0501324 12.399445,20.8318997 L13.2379849,19.983415 L14.0803699,20.8326481 C14.2955873,21.0496335 14.6423127,21.0553709 14.8644794,20.8455838 L15.8424291,19.9221573 L17.0940834,20.8830012 C17.4648668,21.1676231 18,20.9000351 18,20.4290387 L18,3.57017036 C18,3.25529378 17.7472845,3 17.4355527,3 L17.4355527,3 Z M8.9211146,11.552199 L12.8791952,11.552199 C13.1908918,11.552199 13.4436073,11.8074928 13.4436073,12.1223693 C13.4436073,12.4372459 13.1908918,12.6925397 12.8791952,12.6925397 L8.9211146,12.6925397 C8.60941804,12.6925397 8.35670254,12.4372459 8.35670254,12.1223693 C8.35670254,11.8074928 8.60941804,11.552199 8.9211146,11.552199 Z M8.35670254,9.43843493 C8.35670254,9.12355835 8.60941804,8.86826458 8.9211146,8.86826458 L11.3610326,8.86826458 C11.6727292,8.86826458 11.9254447,9.12355835 11.9254447,9.43843493 C11.9254447,9.75331151 11.6727292,10.0086053 11.3610326,10.0086053 L8.9211146,10.0086053 C8.60941804,10.0086053 8.35670254,9.75334715 8.35670254,9.43843493 Z M14.1805178,15.3764385 L8.9211146,15.3764385 C8.60941804,15.3764385 8.35670254,15.1211447 8.35670254,14.8062681 C8.35670254,14.4913915 8.60941804,14.2360978 8.9211146,14.2360978 L14.1805178,14.2360978 C14.4922143,14.2360978 14.7449298,14.4913915 14.7449298,14.8062681 C14.7449298,15.1211447 14.4922143,15.3764385 14.1805178,15.3764385 Z M14.9124897,7.32470652 L8.9211146,7.32470652 C8.60941804,7.32470652 8.35670254,7.06941274 8.35670254,6.75453616 C8.35670254,6.43965958 8.60941804,6.1843658 8.9211146,6.1843658 L14.9124897,6.1843658 C15.2241862,6.1843658 15.4769017,6.43965958 15.4769017,6.75453616 C15.4769017,7.06941274 15.2241862,7.32470652 14.9124897,7.32470652 Z" id="Shape" fill="#091D42"></path>
    </g>
</svg>