<?xml version="1.0" encoding="UTF-8"?>
<svg width="24px" height="24px" viewBox="0 0 24 24" version="1.1" xmlns="http://www.w3.org/2000/svg" xmlns:xlink="http://www.w3.org/1999/xlink">
    <!-- Generator: Sketch 63 (92445) - https://sketch.com -->
    <title>Icon/Categories/Shopping/cart</title>
    <desc>Created with Sketch.</desc>
    <g id="Icon/Categories/Shopping/cart" stroke="none" stroke-width="1" fill="none" fill-rule="evenodd">
        <path d="M8.890743,16.8000278 C9.763055,16.8000278 10.4727698,17.5177993 10.4727698,18.4000139 C10.4727698,19.2823673 9.763055,20 8.890743,20 C8.01829367,20 7.30857886,19.2823673 7.30857886,18.4000139 C7.30857886,17.5177993 8.01829367,16.8000278 8.890743,16.8000278 Z M16.3086909,16.8000278 C17.1811403,16.8000278 17.8907178,17.5177993 17.8907178,18.4000139 C17.8907178,19.2823673 17.1811403,20 16.3086909,20 C15.4363789,20 14.7266641,19.2823673 14.7266641,18.4000139 C14.7266641,17.5177993 15.4363789,16.8000278 16.3086909,16.8000278 Z M5.72655205,4 C5.97374374,4 6.18797654,4.17347071 6.24153475,4.41777415 L6.24153475,4.41777415 L6.61850207,6.13331482 L19.4727446,6.13331482 C19.6386377,6.13331482 19.7940938,6.21206414 19.8940691,6.34539632 C19.9939071,6.47914513 20.0249434,6.65206032 19.9796249,6.81303116 L19.9796249,6.81303116 L17.8701185,14.2797719 C17.8062606,14.5089366 17.5993062,14.666713 17.3633755,14.666713 L17.3633755,14.666713 L7.83592113,14.666713 C7.54547089,14.666713 7.30857886,14.9057387 7.30857886,15.2000417 C7.30857886,15.4943447 7.54547089,15.7333704 7.83592113,15.7333704 L7.83592113,15.7333704 L17.3633755,15.7333704 C17.6549244,15.7333704 17.8907178,15.9719794 17.8907178,16.2666991 C17.8907178,16.5615576 17.6549244,16.8000278 17.3633755,16.8000278 L17.3633755,16.8000278 L7.83592113,16.8000278 C6.96360913,16.8000278 6.25389432,16.0822562 6.25389432,15.2000417 C6.25389432,14.5436585 6.64734108,13.9796356 7.20764225,13.7332488 L7.20764225,13.7332488 L5.30330496,5.06665741 L2.52734227,5.06665741 C2.23593075,5.06665741 2,4.82818726 2,4.5333287 C2,4.23860906 2.23593075,4 2.52734227,4 L2.52734227,4 Z" id="Combined-Shape" fill="#091D42"></path>
    </g>
</svg>