<?xml version="1.0" encoding="UTF-8"?>
<svg width="24px" height="24px" viewBox="0 0 24 24" version="1.1" xmlns="http://www.w3.org/2000/svg" xmlns:xlink="http://www.w3.org/1999/xlink">
    <!-- Generator: Sketch 63 (92445) - https://sketch.com -->
    <title>Icon/Categories/Shopping/store</title>
    <desc>Created with Sketch.</desc>
    <g id="Icon/Categories/Shopping/store" stroke="none" stroke-width="1" fill="none" fill-rule="evenodd">
        <path d="M16.1958636,13.2318073 C17.0127234,13.7155271 17.97698,13.8895628 18.9020397,13.7547295 L18.9020397,13.7547295 L18.9020397,20.4328777 C18.9020397,20.746071 18.6297151,21 18.2937479,21 L18.2937479,21 L14.5410439,21 L14.5410439,16.6066456 C14.5410439,16.2934523 14.2687192,16.0395233 13.9327521,16.0395233 L13.9327521,16.0395233 L10.1052281,16.0395233 C9.76929901,16.0395233 9.49693636,16.2934523 9.49693636,16.6066456 L9.49693636,16.6066456 L9.49693636,21 L5.70621408,21 C5.37028495,21 5.0979223,20.7460356 5.0979223,20.4328423 L5.0979223,20.4328423 L5.0979223,13.754694 C6.02336221,13.8895982 6.98769476,13.7152436 7.8041744,13.2318073 C9.08120695,13.9879585 10.7229484,13.9879585 11.999981,13.2318073 C13.2770516,13.9879939 14.9188691,13.9879231 16.1958636,13.2318073 Z M20.3917082,6.44136881 C20.7276754,6.44136881 21,6.69526236 21,7.00849108 L21,7.00849108 L21,10.1414517 C21,11.5326735 19.7859637,12.6645078 18.2937479,12.6645078 C17.4482984,12.6645078 16.6924578,12.3009824 16.1958256,11.7330449 C15.1093404,12.9755389 13.0854396,12.9743338 11.999981,11.7330449 C10.9134958,12.9755389 8.88963306,12.9743692 7.80413638,11.7330449 C7.30750417,12.3009824 6.5516256,12.6645078 5.70621408,12.6645078 C4.21399831,12.6645078 3,11.5326735 3,10.1414517 L3,10.1414517 L3,7.00849108 C3,6.69529781 3.27236264,6.44136881 3.60829178,6.44136881 L3.60829178,6.44136881 Z M18.0748769,3 C18.2842053,3 18.4788207,3.1003452 18.5901001,3.26562589 L18.5901001,3.26562589 L19.9644973,5.30712428 L4.03554071,5.30712428 L5.40993797,3.26562589 C5.52121734,3.1003452 5.71583269,3 5.9251611,3 L5.9251611,3 Z" id="Combined-Shape" fill="#091D42"></path>
    </g>
</svg>