<?xml version="1.0" encoding="UTF-8"?>
<svg width="24px" height="24px" viewBox="0 0 24 24" version="1.1" xmlns="http://www.w3.org/2000/svg" xmlns:xlink="http://www.w3.org/1999/xlink">
    <!-- Generator: Sketch 63.1 (92452) - https://sketch.com -->
    <title>Icon/Categories/Navigation/expand</title>
    <desc>Created with Sketch.</desc>
    <g id="Icon/Categories/Navigation/expand" stroke="none" stroke-width="1" fill="none" fill-rule="evenodd">
        <path d="M6.01666667,5.16666667 L9.25416667,5.16666667 C9.575,5.16666667 9.83333333,4.90833333 9.83333333,4.5875 L9.83333333,4.57916667 C9.83333333,4.25833333 9.575,4 9.25416667,4 L4.57916667,4 C4.25833333,4 4,4.25833333 4,4.57916667 L4,9.25416667 C4,9.575 4.25833333,9.83333333 4.57916667,9.83333333 L4.5875,9.83333333 C4.90833333,9.83333333 5.16666667,9.575 5.16666667,9.25416667 L5.16666667,6.01666667 L10.0458333,10.8625 C10.1541667,10.9708333 10.3,11.0291667 10.4541667,11.0291667 C10.6083333,11.0291667 10.7541667,10.9708333 10.8625,10.8583333 C11.0875,10.6333333 11.0875,10.2666667 10.8625,10.0416667 L6.01666667,5.16666667 Z M19.4208333,4 L14.7458333,4 C14.425,4 14.1666667,4.25833333 14.1666667,4.57916667 L14.1666667,4.5875 C14.1666667,4.90833333 14.425,5.16666667 14.7458333,5.16666667 L17.9833333,5.16666667 L13.1375,10.0458333 C12.9125,10.2708333 12.9125,10.6375 13.1375,10.8625 C13.2458333,10.9708333 13.3916667,11.0333333 13.5458333,11.0333333 C13.7,11.0333333 13.8458333,10.975 13.9541667,10.8666667 L18.8333333,6.01666667 L18.8333333,9.25416667 C18.8333333,9.575 19.0916667,9.83333333 19.4125,9.83333333 L19.4208333,9.83333333 C19.7416667,9.83333333 20,9.575 20,9.25416667 L20,4.57916667 C20,4.25833333 19.7416667,4 19.4208333,4 L19.4208333,4 Z M10.4541667,12.9666667 C10.3,12.9666667 10.1541667,13.025 10.0458333,13.1333333 L5.16666667,17.9833333 L5.16666667,14.7458333 C5.16666667,14.425 4.90833333,14.1666667 4.5875,14.1666667 L4.57916667,14.1666667 C4.25833333,14.1666667 4,14.425 4,14.7458333 L4,19.4208333 C4,19.7416667 4.25833333,20 4.57916667,20 L9.25416667,20 C9.575,20 9.83333333,19.7416667 9.83333333,19.4208333 L9.83333333,19.4125 C9.83333333,19.0916667 9.575,18.8333333 9.25416667,18.8333333 L6.01666667,18.8333333 L10.8625,13.9541667 C11.0875,13.7291667 11.0875,13.3625 10.8625,13.1375 C10.7541667,13.0291667 10.6083333,12.9666667 10.4541667,12.9666667 L10.4541667,12.9666667 Z M19.4208333,14.1666667 L19.4125,14.1666667 C19.0916667,14.1666667 18.8333333,14.425 18.8333333,14.7458333 L18.8333333,17.9833333 L13.9541667,13.1375 C13.8458333,13.0291667 13.7,12.9708333 13.5458333,12.9708333 C13.3916667,12.9708333 13.2458333,13.0291667 13.1375,13.1416667 C12.9125,13.3666667 12.9125,13.7333333 13.1375,13.9583333 L17.9833333,18.8333333 L14.7458333,18.8333333 C14.425,18.8333333 14.1666667,19.0916667 14.1666667,19.4125 L14.1666667,19.4208333 C14.1666667,19.7416667 14.425,20 14.7458333,20 L19.4208333,20 C19.7416667,20 20,19.7416667 20,19.4208333 L20,14.7458333 C20,14.425 19.7416667,14.1666667 19.4208333,14.1666667 L19.4208333,14.1666667 Z" id="Shape" fill="#091D42"></path>
    </g>
</svg>