<?xml version="1.0" encoding="UTF-8"?>
<svg width="24px" height="24px" viewBox="0 0 24 24" version="1.1" xmlns="http://www.w3.org/2000/svg" xmlns:xlink="http://www.w3.org/1999/xlink">
    <!-- Generator: Sketch 63.1 (92452) - https://sketch.com -->
    <title>Icon/Categories/Navigation/plus</title>
    <desc>Created with Sketch.</desc>
    <g id="Icon/Categories/Navigation/plus" stroke="none" stroke-width="1" fill="none" fill-rule="evenodd">
        <path d="M18.1284047,11.1284047 L12.8715953,11.1284047 L12.8715953,5.87159533 C12.8715953,5.3922179 12.4793774,5 12,5 C11.5206226,5 11.1284047,5.3922179 11.1284047,5.87159533 L11.1284047,11.1284047 L5.87159533,11.1284047 C5.3922179,11.1284047 5,11.5206226 5,12 C5,12.2396887 5.09805447,12.4575875 5.25603113,12.6155642 C5.41400778,12.7735409 5.63190661,12.8715953 5.87159533,12.8715953 L11.1284047,12.8715953 L11.1284047,18.1284047 C11.1284047,18.3680934 11.2264591,18.5859922 11.3844358,18.7439689 C11.5424125,18.9019455 11.7603113,19 12,19 C12.4793774,19 12.8715953,18.6077821 12.8715953,18.1284047 L12.8715953,12.8715953 L18.1284047,12.8715953 C18.6077821,12.8715953 19,12.4793774 19,12 C19,11.5206226 18.6077821,11.1284047 18.1284047,11.1284047 Z" id="Path" fill="#091D42"></path>
    </g>
</svg>