<?xml version="1.0" encoding="UTF-8"?>
<svg width="24px" height="24px" viewBox="0 0 24 24" version="1.1" xmlns="http://www.w3.org/2000/svg" xmlns:xlink="http://www.w3.org/1999/xlink">
    <!-- Generator: Sketch 63.1 (92452) - https://sketch.com -->
    <title>Icon/Categories/Action/airplane</title>
    <desc>Created with Sketch.</desc>
    <g id="Icon/Categories/Action/airplane" stroke="none" stroke-width="1" fill="none" fill-rule="evenodd">
        <path d="M17.216398,4.6050888 L16.8850108,4.94268135 C16.7728777,5.05829286 16.6666587,5.16943374 16.6200254,5.22238557 L14.4907785,7.46910944 C14.4719076,7.48799686 14.4465135,7.50035542 14.4214977,7.49927774 L6.17397848,5.82308661 C5.91997046,5.76447611 5.64961137,5.84464686 5.46764186,6.0267755 L4.66899791,6.82611784 C4.49022085,7.00505123 4.59410568,7.24289061 4.81305689,7.36042291 L11.3904466,10.544949 C11.4514627,10.5722909 11.4686991,10.6502519 11.4215218,10.6974704 L7.35803408,14.8869274 C7.2738166,14.9780194 7.15217161,15.0181602 7.0303053,15.0041154 L4.25461527,14.721835 C4.02101974,14.6904003 3.78789451,14.7741099 3.62277403,14.9393748 L3.05664667,15.5059972 C2.96229211,15.6004343 2.98999751,15.7563285 3.10866001,15.8143853 L6.11331387,17.4793111 C6.29296485,17.5579366 6.4390561,17.7041556 6.51761291,17.8839637 L8.18108409,20.891245 C8.23909008,21.0100112 8.39484811,21.0377409 8.48920267,20.9433038 L9.05196022,20.3800541 C9.2170807,20.2147893 9.29731974,19.9780597 9.26931002,19.7476604 L8.98708256,16.9221307 C8.97305004,16.8001579 9.01652553,16.6750337 9.10416814,16.5941154 L13.2969534,12.5812875 C13.3475282,12.5374694 13.4220235,12.5513204 13.4493416,12.6123899 L16.6160549,19.1613704 C16.7253273,19.4056484 16.979612,19.5319908 17.1683211,19.3431167 L17.966965,18.5437744 C18.1523044,18.358273 18.2290353,18.0910502 18.170476,17.8368201 L16.5059491,9.60071578 C16.4990435,9.56682212 16.5090699,9.53638428 16.5326585,9.51277501 L18.7774195,7.38166616 L18.895053,7.27225986 C19.0257117,7.14792562 19.2103504,6.96698864 19.3241038,6.85442348 L19.3941769,6.78477204 C20.8870008,5.29064269 21.3447081,3.86000881 20.7433557,3.25813059 C20.1420034,2.65625238 18.7125918,3.10758669 17.216398,4.6050888 Z" id="Path" fill="#091D42"></path>
    </g>
</svg>