<?xml version="1.0" encoding="UTF-8"?>
<svg width="24px" height="24px" viewBox="0 0 24 24" version="1.1" xmlns="http://www.w3.org/2000/svg" xmlns:xlink="http://www.w3.org/1999/xlink">
    <!-- Generator: Sketch 63 (92445) - https://sketch.com -->
    <title>Icon/Categories/Action/data</title>
    <desc>Created with Sketch.</desc>
    <g id="Icon/Categories/Action/data" stroke="none" stroke-width="1" fill="none" fill-rule="evenodd">
        <path d="M19.1004227,14.0989632 L19.2744403,14.0993752 C19.675432,14.1003199 20,14.4257209 20,14.8267971 L19.9950432,17.5997268 C19.8110476,19.1679206 16.3756771,20 12,20 C7.91802978,20 4.6381627,19.2637191 4.070341,17.8279437 L4.03212041,17.7299911 C4.01127863,17.6623278 4,17.5901758 4,17.5149425 L4,14.8267971 C4,14.4257209 4.32456801,14.1003199 4.72555973,14.0993752 L4.89957727,14.0989632 C5.05509905,14.0985988 5.20519138,14.1480463 5.32888675,14.2379678 L5.54739589,14.4365711 C6.28274882,15.0067031 8.95162721,15.513076 12,15.513076 C15.0483728,15.513076 17.7172512,15.0067031 18.4526041,14.4365711 L18.6711133,14.2379678 C18.7948086,14.1480463 18.944901,14.0985988 19.1004227,14.0989632 Z M19.0127218,8.78189287 L19.2734792,8.7821629 C19.674847,8.78257794 20,9.10813497 20,9.50958647 L19.9950432,12.2825161 C19.8110476,13.8507099 16.3756771,14.6827893 12,14.6827893 C7.91692821,14.6827893 4.63639253,13.946111 4.06990583,12.5097479 L4.03191274,12.4120248 C4.0111999,12.3445461 4,12.2726435 4,12.1977319 L4,9.50958647 C4,9.10813497 4.32515301,8.78257794 4.72652083,8.7821629 L4.9872782,8.78189287 C5.12247844,8.78175345 5.25410409,8.81928382 5.36792531,8.88902005 L5.60776905,9.07115053 C6.4622986,9.64262124 9.0540513,10.1093552 12,10.1093552 C14.9459487,10.1093552 17.5377014,9.64262124 18.3922309,9.07115053 L18.6320747,8.88902005 C18.7458959,8.81928382 18.8775216,8.78175345 19.0127218,8.78189287 Z M12.4783532,4 C16.7469431,4.05985703 20,4.92654968 20,6.5334255 C20,8.19981524 16.5015136,9.07017809 12,9.07017809 C7.49848641,9.07017809 4,8.19981524 4,6.5334255 C4,4.92654968 7.25305688,4.05985703 11.5216468,4 L12.4783532,4 Z" id="data" fill="#091D42"></path>
    </g>
</svg>