<?xml version="1.0" encoding="UTF-8"?>
<svg width="24px" height="24px" viewBox="0 0 24 24" version="1.1" xmlns="http://www.w3.org/2000/svg" xmlns:xlink="http://www.w3.org/1999/xlink">
    <title>Icon/Categories/Action/mic-off</title>
    <g id="Icon/Categories/Action/mic-off" stroke="none" stroke-width="1" fill="none" fill-rule="evenodd">
        <path d="M6.28623529,9.23172143 C6.65788235,9.24866261 6.94376471,9.56948614 6.94376471,9.9411332 L6.94376471,9.9411332 L6.94376471,11.3080744 C6.95329412,13.9816038 9.11541176,16.1458391 11.79,16.1543097 C12.4951765,16.1543097 13.1918824,16.0039567 13.824,15.7043097 C13.8716471,15.6831332 13.9309412,15.6916038 13.9701176,15.7307803 L13.9701176,15.7307803 L14.7663529,16.5270156 C14.7790588,16.5354861 14.7885882,16.5524273 14.7970588,16.566192 C14.8447059,16.6477214 14.8097647,16.752545 14.7271765,16.800192 C14.0304706,17.1760744 13.2649412,17.4143097 12.4771765,17.5000744 L12.4771765,17.5000744 L12.4771765,19.6166626 L14.5884706,19.6166626 C14.9696471,19.6378391 15.264,19.9618391 15.2470588,20.3430156 C15.2290588,20.7146626 14.9092941,21.000545 14.5376471,21.000545 L14.5376471,21.000545 L8.98517647,21.000545 C8.60505882,20.9793685 8.31070588,20.6543097 8.32764706,20.274192 C8.34564706,19.9014861 8.66647059,19.6166626 9.03705882,19.6166626 L9.03705882,19.6166626 L11.0975294,19.6166626 L11.0975294,17.5000744 C7.98670588,17.1538391 5.55882353,14.5099567 5.55882353,11.3080744 L5.55882353,11.3080744 L5.55882353,9.88925085 C5.58105882,9.50807437 5.90505882,9.21372143 6.28623529,9.23172143 Z M5.59774739,3.18757527 L19.1367166,16.7265445 C19.3858003,16.9756282 19.3858003,17.3873788 19.1367166,17.6364625 C19.0116665,17.757446 18.8459496,17.8235294 18.6802327,17.8235294 C18.5134991,17.8235294 18.3477822,17.757446 18.222732,17.6334125 L4.68681277,4.09749323 C4.43772908,3.84739287 4.43772908,3.43665895 4.68681277,3.18757527 C4.93589645,2.93747491 5.34866371,2.93747491 5.59774739,3.18757527 Z M8.35411765,10.2270156 C8.38905882,10.1920744 8.44094118,10.1920744 8.47588235,10.2270156 L8.47588235,10.2270156 L12.7461176,14.4972508 C12.7545882,14.5099567 12.7630588,14.5237214 12.7683529,14.5364273 C12.78,14.5840744 12.7545882,14.6317214 12.7069412,14.6444273 C11.4988235,14.982192 10.2102353,14.6317214 9.33988235,13.7274861 C8.69188235,13.0731332 8.32764706,12.1868979 8.32764706,11.2646626 L8.32764706,11.2646626 L8.32764706,10.2873685 C8.32764706,10.266192 8.33717647,10.2439567 8.35411765,10.2270156 Z M17.3625882,9.23172143 C17.7342353,9.24866261 18.0201176,9.56948614 18.0201176,9.9411332 L18.0201176,9.9411332 L18.0201176,11.3080744 C18.0201176,12.0174861 17.8983529,12.7237214 17.6611765,13.3897214 C17.6569412,13.4034861 17.6484706,13.4108979 17.6389412,13.4193685 C17.6050588,13.4543097 17.5531765,13.4543097 17.5182353,13.4193685 L17.5182353,13.4193685 L16.5398824,12.4420744 C16.524,12.4251332 16.5144706,12.3944273 16.5187059,12.3647803 C16.5970588,12.0174861 16.6351765,11.6627803 16.6351765,11.3080744 L16.6351765,11.3080744 L16.6351765,9.88925085 C16.6574118,9.50807437 16.9814118,9.21372143 17.3625882,9.23172143 Z M11.8334118,3.00054496 C13.7329412,3.02701555 15.2470588,4.60254496 15.2470588,6.50101555 L15.2470588,6.50101555 L15.2470588,10.9448979 C15.2470588,10.9671332 15.2385882,10.9883097 15.2205882,11.0052508 C15.1867059,11.040192 15.1337647,11.040192 15.0998824,11.0052508 L15.0998824,11.0052508 L8.89094118,4.80054496 C8.83482353,4.74442732 8.82529412,4.65336849 8.86870588,4.58454496 C9.51776471,3.57654496 10.6390588,2.97936849 11.8334118,3.00054496 Z" id="Combined-Shape" fill="#091D42"></path>
    </g>
</svg>