<?xml version="1.0" encoding="UTF-8"?>
<svg width="24px" height="24px" viewBox="0 0 24 24" version="1.1" xmlns="http://www.w3.org/2000/svg" xmlns:xlink="http://www.w3.org/1999/xlink">
    <title>Icon/Categories/Action/trashOpened</title>
    <g id="Icon/Categories/Action/trashOpened" stroke="none" stroke-width="1" fill="none" fill-rule="evenodd">
        <path d="M5.76594203,6 L6.96304348,19.6265625 C6.96304348,20.3859375 7.62753623,21 8.44927536,21 L15.6014493,21 C16.4231884,21 17.0876812,20.3859375 17.0876812,19.6265625 L18.2695652,6 L5.76594203,6 Z M8.89057971,18.421875 L8.55072464,7.5 L9.48913043,7.5 L9.83913043,18.421875 L8.89057971,18.421875 L8.89057971,18.421875 Z M12.4565217,18.421875 L11.5434783,18.421875 L11.5434783,7.5 L12.4565217,7.5 L12.4565217,18.421875 Z M15.1094203,18.421875 L14.165942,18.421875 L14.5108696,7.5 L15.4492754,7.5 L15.1094203,18.421875 Z M17.9491779,4.07929677 L16.2332175,3.45473825 L15.3483535,1.98535744 C15.2232939,1.78021281 15.0281237,1.61938666 14.799329,1.5361122 L11.7106002,0.411906854 C11.4770389,0.3268975 11.2193862,0.322909595 10.9917206,0.399672751 L9.36937572,0.956504159 L7.65341528,0.331945637 C6.81450129,0.0266059147 6.08877782,0.181484171 5.8066112,0.956730583 L18.9623079,5.74501259 C19.2444745,4.96976618 18.7880919,4.38463649 17.9491779,4.07929677 Z" id="Shape" fill="#091D42"></path>
    </g>
</svg>