<?xml version="1.0" encoding="UTF-8"?>
<svg width="24px" height="24px" viewBox="0 0 24 24" version="1.1" xmlns="http://www.w3.org/2000/svg" xmlns:xlink="http://www.w3.org/1999/xlink">
    <!-- Generator: Sketch 63.1 (92452) - https://sketch.com -->
    <title>Icon/Categories/Action/volumeHigh</title>
    <desc>Created with Sketch.</desc>
    <g id="Icon/Categories/Action/volumeHigh" stroke="none" stroke-width="1" fill="none" fill-rule="evenodd">
        <path d="M17.1274151,4.66760971 C17.3483029,4.44728027 17.705483,4.44259241 17.9263708,4.66292185 C19.9096606,6.61775963 21,9.21952215 21,11.9994234 C21,14.7793246 19.9096606,17.385775 17.921671,19.3359249 C17.813577,19.4437457 17.6678851,19.5 17.526893,19.5 C17.381201,19.5 17.2355091,19.4437457 17.1274151,19.331237 C16.9065274,19.1109076 16.9112272,18.7546302 17.1321149,18.5343008 C18.894517,16.7951046 19.8673629,14.4746137 19.8673629,11.9994234 C19.8673629,9.52423308 18.8992167,7.20374218 17.1321149,5.46454598 C16.9112272,5.24421654 16.9065274,4.88793915 17.1274151,4.66760971 Z M15.05953,6.60838391 C15.2804178,6.38805447 15.6375979,6.39274233 15.8584856,6.61307177 C17.2778068,8.04755705 18.0579634,9.9602041 18.0579634,11.9994234 C18.0579634,14.0386426 17.273107,15.9512897 15.8537859,17.3951507 C15.7456919,17.5076593 15.6,17.5639137 15.4543081,17.5639137 C15.3133159,17.5639137 15.167624,17.5076593 15.05953,17.3998385 C14.8386423,17.1795091 14.8339426,16.8232317 15.0548303,16.6029023 C16.2626632,15.3793707 16.9300261,13.7479953 16.9300261,12.0041112 C16.9300261,10.2602272 16.2626632,8.62885174 15.0548303,7.40532018 C14.8339426,7.18499074 14.8386423,6.82871335 15.05953,6.60838391 Z M9.76762402,6.74433186 C9.87571802,6.74433186 9.98851175,6.76777117 10.091906,6.81933763 C10.3550914,6.94590986 10.5195822,7.20843004 10.5195822,7.49907739 L10.5195822,7.49907739 L10.5195822,16.4997693 C10.5195822,16.7857288 10.3550914,17.048249 10.091906,17.1748212 C9.98851175,17.2263877 9.87571802,17.249827 9.76762402,17.249827 C9.60313316,17.249827 9.43394256,17.1935727 9.29765013,17.0857519 L9.29765013,17.0857519 L6.23342037,14.6246252 L3.75195822,14.6246252 C3.3383812,14.6246252 3,14.2870992 3,13.8745675 L3,13.8745675 L3,10.1242792 C3,9.71174749 3.3383812,9.37422155 3.75195822,9.37422155 L3.75195822,9.37422155 L6.23342037,9.37422155 L9.29765013,6.90840698 C9.43394256,6.80058619 9.59843342,6.74433186 9.76762402,6.74433186 Z M12.6814621,8.54915812 C12.9023499,8.32882868 13.25953,8.33351654 13.4804178,8.55384598 C14.3874674,9.47266661 14.8856397,10.6961982 14.8809399,12.0041112 C14.8809399,13.3073364 14.3827676,14.5261801 13.475718,15.4450008 C13.367624,15.5575094 13.2219321,15.6137637 13.0762402,15.6137637 C12.935248,15.6137637 12.7895561,15.5575094 12.6814621,15.4496886 C12.4605744,15.2293592 12.4558747,14.8730818 12.6767624,14.6527524 C13.3723238,13.9448854 13.7577023,13.0026255 13.7577023,11.9994234 C13.7577023,10.9915334 13.3723238,10.0492734 12.6767624,9.34609438 C12.4558747,9.12576495 12.4605744,8.76948756 12.6814621,8.54915812 Z" id="Combined-Shape" fill="#091D42"></path>
    </g>
</svg>