<?xml version="1.0" encoding="UTF-8"?>
<svg width="24px" height="24px" viewBox="0 0 24 24" version="1.1" xmlns="http://www.w3.org/2000/svg" xmlns:xlink="http://www.w3.org/1999/xlink">
    <!-- Generator: Sketch 63.1 (92452) - https://sketch.com -->
    <title>Icon/Categories/Action/volumeOff</title>
    <desc>Created with Sketch.</desc>
    <g id="Icon/Categories/Action/volumeOff" stroke="none" stroke-width="1" fill="none" fill-rule="evenodd">
        <path d="M8.1703125,2.82078647 L18.8625,20.5315497 C19.05,20.8376165 18.9421875,21.2350466 18.6234375,21.4132049 C18.5203125,21.472591 18.403125,21.5 18.2859375,21.5 C18.05625,21.5 17.83125,21.385796 17.709375,21.1802287 L7.0171875,3.46946544 C6.8296875,3.16339861 6.9375,2.76596853 7.25625,2.58781022 C7.575,2.40965191 7.9828125,2.51015147 8.1703125,2.82078647 Z M17.1328125,4.85361846 C17.353125,4.63891486 17.709375,4.6343467 17.9296875,4.8490503 C19.9078125,6.7494056 21,9.28930356 21,11.9982235 C21,14.4193492 20.128125,16.7079983 18.5296875,18.5215585 L18.5296875,18.5215585 L17.9203125,17.5165629 C19.1859375,15.9451153 19.875,14.0264873 19.875,11.9982235 C19.875,9.58623407 18.9046875,7.32499399 17.1375,5.63020597 C16.9171875,5.41550236 16.9125,5.06832207 17.1328125,4.85361846 Z M8.625,7.57167473 L10.5234375,10.71457 L10.5234375,16.3836588 C10.5234375,16.6623167 10.359375,16.9181337 10.096875,17.0414741 C9.99375,17.0917239 9.8859375,17.1145647 9.7734375,17.1145647 C9.6046875,17.1145647 9.4359375,17.0597467 9.3,16.954679 L9.3,16.954679 L6.234375,14.5563941 L3.75,14.5563941 C3.3375,14.5563941 3,14.2274864 3,13.8254882 L3,13.8254882 L3,10.1709588 C3,9.76896054 3.3328125,9.44005289 3.75,9.44005289 L3.75,9.44005289 L6.234375,9.44005289 L8.625,7.57167473 Z M15.0609375,6.74483744 C15.28125,6.53013384 15.6375,6.534702 15.8578125,6.7494056 C17.2734375,8.14726311 18.05625,10.0110731 18.05625,11.9982235 C18.05625,13.4006492 17.6671875,14.7391206 16.9453125,15.8994337 L16.9453125,15.8994337 L16.2796875,14.7985067 C16.70625,13.9442604 16.93125,12.9895146 16.93125,12.0027917 C16.93125,10.3034355 16.265625,8.71371517 15.05625,7.52142495 C14.8359375,7.30672134 14.840625,6.95954105 15.0609375,6.74483744 Z M12.684375,8.64062458 C12.9046875,8.42592098 13.2609375,8.43048914 13.48125,8.64519274 C14.3859375,9.53598429 14.8875,10.7282745 14.8875,11.9982235 C14.8875,12.153541 14.878125,12.3088585 14.8640625,12.464176 L14.8640625,12.464176 L12.609375,8.72741966 C12.6328125,8.69544252 12.65625,8.66803355 12.684375,8.64062458 Z" id="Combined-Shape" fill="#091D42"></path>
    </g>
</svg>