<svg height="24" viewBox="0 0 24 24" width="24" xmlns="http://www.w3.org/2000/svg"><path d="m17.9930547 3.40560902c.3359194.30822992.5069453.71970814.5069453 1.20783183l-.0001906 14.36970275c-.0197643.6254168-.177536 1.1071717-.4919241 1.430792-.3646912.375346-.8590963.5687789-1.4748287.5860644h-9.16264407c-.61012033-.0195619-1.10543007-.213217-1.46611307-.5868201-.29618563-.306618-.42100757-.7693509-.40051322-1.3580146l-.00378624-11.66631481c0-.11723129.05272385-.2216839.13496751-.28915705l3.79000083-3.98476587c.06669816-.07012572.15769774-.10960074.25265653-.10960074h7.03576063c.5138298-.03428496.9468023.09667535 1.2796692.40028219zm-1.2433318.3353792-.0245154.00087938-6.6882075-.0008676.0002345 3.05992664c.0047569.23010674-.04744723.43355523-.16149234.59612112l-.07588702.09251982c-.16184993.17043853-.38616622.25989065-.65791802.2806727l-.02609323.00099638-2.90684389-.00023666.00447706 11.2971855c-.01432886.4162544.05808795.684714.1923296.823684.22357842.2315872.54633877.3577794.97547338.3717266h9.14209956c.4352394-.0123153.7567298-.1380964.984517-.3725387.1680167-.1729506.26804-.478371.2821864-.9199817v-14.35763485c0-.28127675-.0870277-.49066021-.2665463-.65538348-.1828371-.16676399-.4332185-.24153312-.7738138-.21706915zm-1.5001962 5.6462189c.4574224 0 .8282365.38472063.8282365.85929758v6.2360452c0 .474577-.3708141.8592976-.8282365.8592976h-6.43658073c-.45742238 0-.82823649-.3847206-.82823649-.8592976v-6.2360452c0-.47457695.37081411-.85929758.82823649-.85929758zm-1.0724878 3.32747128-2.0207362 2.6275912c-.1229797.1599121-.3480112.1851844-.5011242.0562791l-1.2473694-1.0501567-1.68907028 1.6190131c-.00748011.0071699-.01517768.0139424-.02306856.0203186l-.00104379.4948262c0 .0677967.05297345.1227568.1183195.1227568h6.43658073c.0653461 0 .1183195-.0549601.1183195-.1227568l-.0008462-2.3435499zm1.0724878-2.5909305h-6.43658073c-.06534605 0-.1183195.0549601-.1183195.1227568l-.00062647 4.7404953 1.4578743-1.3960519c.1110973-.1064894.2723629-.1265428.4024608-.0574523l.0620752.0419864 1.2081839 1.0171665 2.0636641-2.6834107c.1384146-.1799825.4002927-.1855241.5456659-.011547l.9330758 1.116309.0008462-2.7674953c0-.0677967-.0529734-.1227568-.1183195-.1227568zm-4.4251492.3682704c.7188066 0 1.3015144.604561 1.3015144 1.3503247 0 .7457638-.5827078 1.3503248-1.3015144 1.3503248s-1.30151453-.604561-1.30151453-1.3503248c0-.7457637.58270793-1.3503247 1.30151453-1.3503247zm0 .7365408c-.3267303 0-.5915975.2748004-.5915975.6137839 0 .3389836.2648672.613784.5915975.613784.3267302 0 .5915975-.2748004.5915975-.613784 0-.3389835-.2648673-.6137839-.5915975-.6137839zm-1.4973775-6.9625591-2.634 2.768 2.40875289.00069589c.07933182-.0071174.13294346-.02272571.1662529-.04215449l.02674271-.02052928c.02033993-.02131589.03458454-.06569105.03265066-.16318873z" fill="#091d42" fill-rule="evenodd"/></svg>