<?xml version="1.0" encoding="UTF-8"?>
<svg width="24px" height="24px" viewBox="0 0 24 24" version="1.1" xmlns="http://www.w3.org/2000/svg" xmlns:xlink="http://www.w3.org/1999/xlink">
    <!-- Generator: Sketch 59.1 (86144) - https://sketch.com -->
    <title>Icon/Categories/File/attachUndefined</title>
    <desc>Created with Sketch.</desc>
    <g id="Icon/Categories/File/attachUndefined" stroke="none" stroke-width="1" fill="none" fill-rule="evenodd">
        <path d="M17.9929913,3.40560902 C18.3289527,3.71383894 18.5,4.12531716 18.5,4.61344085 L18.4998093,18.9831436 C18.4800426,19.6085604 18.3222512,20.0903153 18.0078236,20.4139356 C17.6430868,20.7892816 17.1486198,20.9827145 16.5328104,21 L7.36901902,21 C6.7588223,20.9804381 6.26345054,20.786783 5.90272238,20.4131799 C5.60649967,20.1065619 5.4816621,19.643829 5.502159,19.0550413 L5.502159,7.38823546 C5.502159,7.29140434 5.53892197,7.19846922 5.60448902,7.12954979 L9.42384733,3.11491154 C9.49055268,3.04479561 9.58155709,3.00532683 9.67652024,3.00532683 L16.7131618,3.00532683 C17.227056,2.97104187 17.6600827,3.10200218 17.9929913,3.40560902 Z M16.7495037,3.74098822 L16.7249853,3.7418676 L10.036,3.741 L10.0361749,6.80092664 C10.0409324,7.03103338 9.98872172,7.23448187 9.87466234,7.39704776 L9.79876581,7.48956758 C9.63689562,7.66000611 9.41255124,7.74945823 9.14076542,7.77024028 L9.14076542,7.77024028 L9.11466892,7.77123666 L6.212,7.771 L6.21193869,19.0681855 C6.19760804,19.4844399 6.27003392,19.7528995 6.40429238,19.8918695 C6.62789878,20.1234567 6.95069956,20.2496489 7.37988789,20.2635961 L16.5231321,20.2635961 C16.958426,20.2512808 17.2799566,20.1254997 17.5077724,19.8910574 C17.6758102,19.7181068 17.7758459,19.4126864 17.7899941,18.9710757 L17.7899941,4.61344085 C17.7899941,4.3321641 17.7029555,4.12278064 17.5234145,3.95805737 C17.3405544,3.79129338 17.0901417,3.71652425 16.7495037,3.74098822 Z M11.86875,15.7125 C12.240625,15.7125 12.540625,15.99375 12.540625,16.35625 C12.540625,16.71875 12.240625,17 11.86875,17 C11.496875,17 11.2,16.71875 11.2,16.35625 C11.2,15.996875 11.5,15.7125 11.86875,15.7125 Z M12.021875,11 C13.19375,11 14,11.65 14,12.584375 C14,13.203125 13.7,13.63125 13.121875,13.971875 C12.578125,14.2875 12.39375,14.51875 12.39375,14.91875 L12.39375,15.165625 L11.309375,15.165625 L11.3,14.896875 C11.246875,14.253125 11.471875,13.853125 12.0375,13.521875 C12.565625,13.20625 12.7875,13.00625 12.7875,12.61875 C12.7875,12.23125 12.4125,11.946875 11.946875,11.946875 C11.475,11.946875 11.134375,12.253125 11.109375,12.715625 L10,12.715625 C10.021875,11.709375 10.765625,11 12.021875,11 Z M9.326,4.265 L6.692,7.034 L9.10057615,7.03469589 C9.17991791,7.02757849 9.23353627,7.01197018 9.26684988,6.9925414 L9.29359593,6.97201212 C9.3139384,6.95069623 9.3281848,6.90632107 9.32625068,6.80882339 L9.32625068,6.80882339 L9.326,4.265 Z" id="Combined-Shape" fill="#091D42"></path>
    </g>
</svg>