<svg height="24" viewBox="0 0 24 24" width="24" xmlns="http://www.w3.org/2000/svg"><path d="m17.9930027 3.40548892c.3359909.3078285.5069973.71955077.5069973 1.20777056l-.0001829 14.37008232c-.0193443.6248513-.1772676 1.1068253-.4917173 1.4306281-.364612.3754571-.8596043.5690161-1.4753762.5860301h-9.16355961c-.61052676-.0195031-1.10574557-.2129129-1.46675826-.586761-.29620531-.3067366-.4210809-.7699045-.40016444-1.3583799v-11.8174937l4.02588954-4.23195248h.14843977l7.0243885.00089408c.5198506-.03764424.9577953.09294988 1.2920436.39918192zm-1.2673198.33647026-6.6896829-.00095918.0001042 3.05978716c.0048075.23027395-.04717278.43357381-.1615891.59660008l-.0761873.09287653c-.16195562.16980673-.38578574.25881044-.68370638.2807741l-2.90262142-.00003787.00005766 11.2972752c-.0146221.4160774.05781338.6847431.1920044.8237051.22374349.2316985.54636613.3577001.97593401.3716061h9.14320053c.4352218-.0121192.7570667-.1379716.9846624-.3723369.1681762-.1731785.2682493-.4785966.282089-.9197281v-14.35826192c0-.28136391-.0869901-.49080491-.266992-.65571926-.1817444-.16651081-.4319975-.2411357-.7972731-.21558104zm-1.1210514 5.64519452c.2614339 0 .473368.219842.473368.49103084v6.97263796c0 .2711888-.2119341.4910308-.473368.4910308h-7.14785709c-.26143394 0-.47336802-.219842-.47336802-.4910308v-6.97263796c0-.27118884.21193408-.49103084.47336802-.49103084zm-3.9296315 5.4498463h-2.982l.00045842 1.7683071 2.98154158-.0003071zm3.692 0h-2.982v1.768l2.9829475.0003071zm-3.692-2.21h-2.982v1.474h2.982zm3.692 0h-2.982v1.474h2.982zm-3.692-2.504-2.98154158.0007-.00045842 1.7673h2.982zm3.6929475.0007-2.9829475-.0007v1.768h2.982zm-6.0419475-5.8577-2.634 2.768 2.39629383.00150562c.08531034-.00658052.14248038-.02247802.17746342-.04231405l.02780788-.02094966c.02039346-.02138208.03453142-.0655575.03257031-.16348129z" fill="#091d42" fill-rule="evenodd"/></svg>