<svg height="24" viewBox="0 0 24 24" width="24" xmlns="http://www.w3.org/2000/svg"><path d="m17.9929913 3.40560902c.3359614.30822992.5070087.71970814.5070087 1.20783183l-.0001907 14.36970275c-.0197667.6254168-.1775581 1.1071717-.4919857 1.430792-.3647368.375346-.8592038.5687789-1.4750132.5860644h-9.16379138c-.61019672-.0195619-1.10556848-.213217-1.46629664-.5868201-.29622271-.306618-.42106028-.7693509-.40056338-1.3581386v-11.66680584c0-.09683112.03676297-.18976624.10233002-.25868567l3.81935831-4.01463825c.06670535-.07011593.15770976-.10958471.25267291-.10958471h7.03664156c.5138942-.03428496.9469209.09667535 1.2798295.40028219zm-1.2434876.3353792-.0245184.00087938-6.6889853-.0008676.0001749 3.05992664c.0047575.23010674-.04745318.43355523-.16151256.59612112l-.07589653.09251982c-.16187019.17043853-.38621457.25989065-.65800039.2806727l-.0260965.00099638-2.90266892-.00023666-.00006131 11.2971855c-.01433065.4162544.05809523.684714.19235369.823684.2236064.2315872.54640718.3577794.97559551.3717266h9.14324421c.4352939-.0123153.7568245-.1380964.9846403-.3725387.1680378-.1729506.2680735-.478371.2822217-.9199817v-14.35763485c0-.28127675-.0870386-.49066021-.2665796-.65538348-.1828601-.16676399-.4332728-.24153312-.7739108-.21706915zm-6.2874433 7.49677038c.1241416.1097292.1518907.2879104.0766681.427786l-.0462228.0662515-1.42316965 1.6100965 1.42068605 1.5731969c.1295527.1434603.1182784.3647811-.0251818.4943338-.122966.1110452-.3031355.1186257-.4336873.028183l-.06064649-.0533648-1.63026428-1.8052734c-.10231532-.1132989-.11771723-.27697-.0457501-.4054568l.04326642-.0609153 1.63026429-1.8443921c.12801746-.1448319.34920556-.1584628.49403756-.0304453zm3.5177388.0304453 1.6302643 1.8443921c.1179533.1334459.1168842.3341901-.0024836.4663721l-1.6302643 1.8052734c-.1295528.1434603-.3508735.1547345-.4943338.0251818s-.1547345-.3508735-.0251818-.4943338l1.420686-1.5731969-1.4231696-1.6100965c-.1280175-.144832-.1143866-.3660201.0304453-.4940375.144832-.1280175.3660201-.1143866.4940375.0304453zm-1.387309-.1057621c.1631247.0446958.2675202.1976956.2568501.3601396l-.0117821.0699088-1 3.6496655c-.0510809.1864283-.2436201.296149-.4300484.2450681-.1631247-.0446958-.2675202-.1976957-.2568501-.3601396l.0117821-.0699089 1-3.6496655c.0383106-.1398212.1561916-.2364944.2913871-.2545424l.0687525-.0023077zm-3.2664902-6.8974418-2.634 2.769 2.40857615.00069589c.07934176-.0071174.13296012-.02272571.16627373-.04215449l.02674605-.02052928c.02034247-.02131589.03458887-.06569105.03265475-.16318873z" fill="#091d42" fill-rule="evenodd"/></svg>