<svg height="24" viewBox="0 0 24 24" width="24" xmlns="http://www.w3.org/2000/svg"><path d="m17.9929913 3.40560902c.3359614.30822992.5070087.71970814.5070087 1.20783183l-.0001907 14.36970275c-.0197667.6254168-.1775581 1.1071717-.4919857 1.430792-.3647368.375346-.8592038.5687789-1.4750132.5860644h-9.16379138c-.61019672-.0195619-1.10556848-.213217-1.46629664-.5868201-.29622271-.306618-.42106028-.7693509-.40056338-1.3581386v-11.66680584c0-.09683112.03676297-.18976624.10233002-.25868567l3.81935831-4.01463825c.06670535-.07011593.15770976-.10958471.25267291-.10958471h7.03664156c.5138942-.03428496.9469209.09667535 1.2798295.40028219zm-1.2434876.3353792-.0245184.00087938-6.6889853-.0008676.0001749 3.05992664c.0047575.23010674-.04745318.43355523-.16151256.59612112l-.07589653.09251982c-.16187019.17043853-.38621457.25989065-.65800039.2806727l-.0260965.00099638-2.90266892-.00023666-.00006131 11.2971855c-.01433065.4162544.05809523.684714.19235369.823684.2236064.2315872.54640718.3577794.97559551.3717266h9.14324421c.4352939-.0123153.7568245-.1380964.9846403-.3725387.1680378-.1729506.2680735-.478371.2822217-.9199817v-14.35763485c0-.28127675-.0870386-.49066021-.2665796-.65538348-.1828601-.16676399-.4332728-.24153312-.7739108-.21706915zm-8.16658214 10.56972828c.07484486-.0001754.14707679.0236163.20660519.066882l.10515752.095558c.3538886.274319 1.63828633.5179603 3.10531573.5179603s2.7514271-.2436413 3.1053157-.5179603l.1051576-.095558c.0595283-.0432657.1317603-.0670574.2066051-.066882l.083746.0001982c.1929772.0004545.3491756.1570212.3491756.349999l-.0023855 1.334195c-.0885478.7545363-1.7418199 1.1548913-3.8476145 1.1548913-1.9644482 0-3.5428842-.3542615-3.81614839-1.0450848l-.01839366-.0471299c-.01003011-.0325562-.01545795-.0672721-.01545795-.1034706v-1.293401c0-.1929778.15619836-.3495445.34917562-.349999zm6.56707844.922184c-.6885458.2913729-1.84603.4582163-3.15.4582163s-2.46145416-.1668434-3.15-.4582163v.6761675c.0997403.2163425 1.5138257.540932 3.15.540932 1.6846446 0 3.1305168-.3501312 3.15-.4956853zm-6.52487237-3.4804922c.06506512-.000067.12840997.0179907.18318643.0515443l.1154248.087632c.41124234.2749631 1.65852334.4995322 3.07626114.4995322s2.6650188-.2245691 3.0762611-.4995322l.1154248-.087632c.0547765-.0335536.1181213-.0516113.1831865-.0515443l.1254895.00013c.1931582.0001997.3496381.1568414.3496381.3499998l-.0023855 1.3341949c-.0885478.7545364-1.7418199 1.1548914-3.8476145 1.1548914-1.9649783 0-3.5437361-.3544528-3.81635782-1.0455588l-.01828417-.0470195c-.00996806-.0324673-.01535801-.0670633-.01535801-.103107v-1.293401c0-.1931584.15647989-.3498001.34963815-.3499998zm6.52487237.8815376c-.6861069.2887639-1.8485095.4571709-3.15.4571709s-2.46389311-.168407-3.15-.4571709v.7167464c.0997403.2163425 1.5138257.5409321 3.15.5409321 1.6846446 0 3.1305168-.3501312 3.15-.4956853zm-2.9197925-3.18234507c2.0542589.0288002 3.6197925.44580933 3.6197925 1.21895757 0 .8017833-1.6836466 1.2205584-3.85 1.2205584-2.16635342 0-3.85-.4187751-3.85-1.2205584 0-.77314824 1.56553362-1.19015737 3.6197925-1.21895757zm-.0191377.70023747h-.4221396l-.4122643.0139748c-1.4162339.0712346-2.5266659.3649125-2.5266659.5047453 0 .1598089 1.4503602.5205584 3.15.5205584s3.15-.3607495 3.15-.5205584c0-.1531502-1.3320148-.4908448-2.9389302-.5187201zm-2.8850698-5.8868383-2.634 2.769 2.40857615.00069589c.07934176-.0071174.13296012-.02272571.16627373-.04215449l.02674605-.02052928c.02034247-.02131589.03458887-.06569105.03265475-.16318873z" fill="#091d42" fill-rule="evenodd"/></svg>