<svg height="24" viewBox="0 0 24 24" width="24" xmlns="http://www.w3.org/2000/svg"><path d="m17.9929913 3.40560902c.3359614.30822992.5070087.71970814.5070087 1.20783183l-.0001907 14.36970275c-.0197667.6254168-.1775581 1.1071717-.4919857 1.430792-.3647368.375346-.8592038.5687789-1.4750132.5860644h-9.16379138c-.61019672-.0195619-1.10556848-.213217-1.46629664-.5868201-.29622271-.306618-.42106028-.7693509-.40056338-1.3581386v-11.66631481c0-.09682332.03675706-.1897516.10231477-.25866965l3.81935831-4.01512927c.06670651-.07012572.15771748-.10960074.25268816-.10960074h7.03664156c.5138942-.03428496.9469209.09667535 1.2798295.40028219zm-1.2434876.3353792-.0245184.00087938-6.6889853-.0008676.0001749 3.05992664c.0047575.23010674-.04745318.43355523-.16151256.59612112l-.07589653.09251982c-.16187019.17043853-.38621457.25989065-.65800039.2806727l-.0260965.00099638-2.90266892-.00023666-.00006131 11.2971855c-.01433065.4162544.05809523.684714.19235369.823684.2236064.2315872.54640718.3577794.97559551.3717266h9.14324421c.4352939-.0123153.7568245-.1380964.9846403-.3725387.1680378-.1729506.2680735-.478371.2822217-.9199817v-14.35763485c0-.28127675-.0870386-.49066021-.2665796-.65538348-.1828601-.16676399-.4332728-.24153312-.7739108-.21706915zm-4.2495037 12.90901178c.1932997 0 .35.1567003.35.35 0 .1691372-.1199737.3102531-.2794628.3428892l-.0705372.0071108h-4c-.19329966 0-.35-.1567003-.35-.35 0-.1691372.1199737-.3102531.27946279-.3428892l.07053721-.0071108zm3-2.5c.1932997 0 .35.1567003.35.35 0 .1691372-.1199737.3102531-.2794628.3428892l-.0705372.0071108h-7c-.19329966 0-.35-.1567003-.35-.35 0-.1691372.1199737-.3102531.27946279-.3428892l.07053721-.0071108zm0-2.2c.1932997 0 .35.1567003.35.35 0 .1691372-.1199737.3102531-.2794628.3428892l-.0705372.0071108h-7c-.19329966 0-.35-.1567003-.35-.35 0-.1691372.1199737-.3102531.27946279-.3428892l.07053721-.0071108zm0-2.5c.1932997 0 .35.15670034.35.35 0 .1691372-.1199737.3102531-.2794628.3428892l-.0705372.0071108h-7c-.19329966 0-.35-.15670034-.35-.35 0-.1691372.1199737-.31025305.27946279-.34288924l.07053721-.00711076zm-6.174-5.185-2.634 2.769 2.40857615.00069589c.07934176-.0071174.13296012-.02272571.16627373-.04215449l.02674605-.02052928c.02034247-.02131589.03458887-.06569105.03265475-.16318873z" fill="#091d42" fill-rule="evenodd"/></svg>