<svg height="24" viewBox="0 0 24 24" width="24" xmlns="http://www.w3.org/2000/svg"><path d="m15.8960654 8.18589601c-.3350634 0-.6077894.28118723-.6077894.62664583v7.80897126c0 .8154429-.3116869 1.622852-.8571389 2.2133452-.541556.5864762-1.3714223.9520196-2.1623278.9520196h-.5298677c-.7636328 0-1.538954-.3575095-2.13505513-.9881723-.59220508-.6226288-.93116457-1.4300379-.93116457-2.2173621v-10.07453698c0-.59852712.24155734-1.16090159.67402289-1.5866994.43246555-.42178085 1.00129411-.65476456 1.59739531-.65476456.588309 0 1.1415532.23298371 1.5506422.6507476.409089.42178085.6389581.98817228.6389581 1.59071636v9.40772148c0 .6869003-.5298677 1.2934613-1.1298649 1.2934613-.5298677 0-1.0986963-.5181879-1.0986963-1.2934613v-5.3666592c0-.3454586-.272726-.62664586-.6077894-.62664586-.33506342 0-.60778944.28118726-.60778944.62664586v5.3666592c0 1.426021.99350194 2.5025664 2.31427514 2.5025664.6428542 0 1.2350592-.2450346 1.6636287-.6949342.4402577-.4579335.6818151-1.1006471.6818151-1.8076322v-9.40772148c0-.93996876-.3545439-1.82370007-1.0012941-2.48248159-.6428542-.66279849-1.4999932-1.02432493-2.4155734-1.02432493s-1.77271914.36152644-2.42336551 1.02432493c-.65064637.66279848-1.00908629 1.54251283-1.00908629 2.48649855v10.07453692c0 1.1528677.4753225 2.3258201 1.27012405 3.1332292.81428199.8274939 1.86622525 1.2814104 2.96492145 1.2814104h.5298677c1.0753198 0 2.1545356-.4699844 2.9571293-1.2894443.3974008-.405713.7090877-.8716804.9311646-1.3898684.2298691-.5422896.3467929-1.112698.3467929-1.6911403v-7.81700516c.0038549-.3454586-.2688712-.62664583-.6039346-.62664583z" fill="#091d42" fill-rule="evenodd"/></svg>