<?xml version="1.0" encoding="UTF-8"?>
<svg width="24px" height="24px" viewBox="0 0 24 24" version="1.1" xmlns="http://www.w3.org/2000/svg" xmlns:xlink="http://www.w3.org/1999/xlink">
    <!-- Generator: Sketch 63.1 (92452) - https://sketch.com -->
    <title>Icon/Categories/File/camera</title>
    <desc>Created with Sketch.</desc>
    <g id="Icon/Categories/File/camera" stroke="none" stroke-width="1" fill="none" fill-rule="evenodd">
        <path d="M14.0765625,5 C14.6203125,5 15.121875,5.525 16.453125,7.07083333 C16.5984375,7.23611111 16.8,7.33333333 17.015625,7.33333333 L17.015625,7.33333333 L19.5703125,7.33333333 C20.3953125,7.33333333 21,7.975 21,8.82569444 L21,8.82569444 L21,17.38125 C21,18.2319444 20.3953125,19 19.5703125,19 L19.5703125,19 L4.5703125,19 C3.7453125,19 3,18.2319444 3,17.38125 L3,17.38125 L3,8.82569444 C3,7.975 3.7453125,7.33333333 4.575,7.33333333 L4.575,7.33333333 L4.9265625,7.33333333 L4.9265625,6.94444444 C4.9265625,6.73055556 5.0953125,6.55555556 5.3015625,6.55555556 L5.3015625,6.55555556 L6.5203125,6.55555556 C6.7265625,6.55555556 6.8953125,6.73055556 6.8953125,6.94444444 L6.8953125,6.94444444 L6.8953125,7.33333333 L7.0875,7.33333333 C7.2984375,7.33333333 7.5046875,7.24097222 7.6453125,7.07569444 C8.98125,5.525 9.5203125,5 10.06875,5 L10.06875,5 Z M12.0079837,8.76778621 L11.8125,8.77222222 C9.7546875,8.86944444 8.090625,10.5951389 7.996875,12.7291667 C7.8890625,15.1743056 9.8296875,17.1868056 12.1875,17.075 C14.2453125,16.9777778 15.909375,15.2520833 16.003125,13.1180556 C16.1109375,10.6729167 14.1703125,8.66041667 11.8125,8.77222222 Z M12,10.1284722 C13.48858,10.1284722 14.6953125,11.3798985 14.6953125,12.9236111 C14.6953125,14.4673237 13.48858,15.71875 12,15.71875 C10.51142,15.71875 9.3046875,14.4673237 9.3046875,12.9236111 C9.3046875,11.3798985 10.51142,10.1284722 12,10.1284722 Z M16.5,8.88888889 C16.1625,8.88888889 15.890625,9.17083333 15.890625,9.52083333 C15.890625,9.87083333 16.1625,10.1527778 16.5,10.1527778 C16.8375,10.1527778 17.109375,9.87083333 17.109375,9.52083333 C17.109375,9.17083333 16.8375,8.88888889 16.5,8.88888889 Z" id="Combined-Shape" fill="#091D42"></path>
    </g>
</svg>