<?xml version="1.0" encoding="UTF-8"?>
<svg width="24px" height="24px" viewBox="0 0 24 24" version="1.1" xmlns="http://www.w3.org/2000/svg" xmlns:xlink="http://www.w3.org/1999/xlink">
    <!-- Generator: Sketch 63.1 (92452) - https://sketch.com -->
    <title>Icon/Categories/File/cloudUpload</title>
    <desc>Created with Sketch.</desc>
    <g id="Icon/Categories/File/cloudUpload" stroke="none" stroke-width="1" fill="none" fill-rule="evenodd">
        <path d="M18.3667969,8.77857143 C18.0820312,6.09285714 15.8460937,4 13.125,4 C11.325,4 9.73945313,4.91428571 8.78671875,6.31071429 C8.49492187,6.18928571 8.175,6.12142857 7.84101562,6.12142857 C6.46640625,6.12142857 5.35195312,7.35 5.33085937,8.74285714 C3.928125,9.19642857 3,10.5892857 3,12.0535714 C3,13.8464286 4.43085937,15.4285714 6.19570312,15.4285714 L11.5429688,15.4285714 L11.5429688,10.3607143 L9.85898437,12.0464286 C9.6796875,12.225 9.39140625,12.225 9.21210938,12.0428571 C9.03632813,11.8607143 9.03632813,11.5678571 9.215625,11.3857143 L11.6765625,8.92142857 C11.71875,8.88214286 11.7644531,8.84642857 11.8207031,8.825 C11.8769531,8.8 11.9367187,8.78928571 11.9964844,8.78928571 C12.1160156,8.78928571 12.2285156,8.83571429 12.3164062,8.92142857 L14.7773438,11.3857143 C14.9566406,11.5642857 14.9601562,11.8607143 14.7808594,12.0428571 C14.6050781,12.225 14.3132813,12.2285714 14.1339844,12.0464286 L12.4570312,10.3607143 L12.4570312,15.4285714 L17.8042969,15.4285714 C19.5691406,15.4285714 21,13.8464286 21,12.0535714 C21,10.4571429 19.8644531,9.05 18.3667969,8.77857143 Z M11.5429688,19.5357143 C11.5429688,19.7928571 11.746875,20 12,20 C12.253125,20 12.4570312,19.7928571 12.4570312,19.5357143 L12.4570312,15.4285714 L11.5429688,15.4285714 L11.5429688,19.5357143 Z" id="Shape" fill="#091D42"></path>
    </g>
</svg>