<svg height="24" viewBox="0 0 24 24" width="24" xmlns="http://www.w3.org/2000/svg"><path d="m6.89583333 5.4v12.45c0 .66.525 1.2 1.16666667 1.2h8.6041667v.75c0 .66-.525 1.2-1.1666667 1.2h-9.33333333c-.64166667 0-1.16666667-.54-1.16666667-1.2v-13.2c0-.66.525-1.2 1.16666667-1.2zm6.96354167-2.4v3c0 .93.7364583 1.6875 1.640625 1.6875h3.5v9.1125c0 .66-.525 1.2-1.1666667 1.2h-8.74999997c-.64166666 0-1.16666666-.54-1.16666666-1.2v-12.6c0-.66.525-1.2 1.16666666-1.2zm1.2140625.00375c.2333333 0 .5723958.12375.7510417.2775l2.8109375 2.4075c.2296875.19875.3645833.49125.3645833.79875 0 .12375-.0984375.225-.21875.225h-3.28125c-.3828125 0-.6927083-.31875-.6963542-.7125v-2.71875c0-.15375.1203125-.2775.2697917-.2775z" fill="#091d42" fill-rule="evenodd"/></svg>