<svg height="24" viewBox="0 0 24 24" width="24" xmlns="http://www.w3.org/2000/svg"><path d="m12.5065789 3v3.6c0 1.116.9302632 2.025 2.0723685 2.025h4.4210526v10.935c0 .792-.6631579 1.44-1.4736842 1.44h-11.05263159c-.81052632 0-1.47368421-.648-1.47368421-1.44v-15.12c0-.792.66315789-1.44 1.47368421-1.44zm1.5381579.0045c.35 0 .681579.117.9486843.333l3.5138157 2.862c.3131579.252.4927632.63.4927632 1.0305 0 .126-.1013158.225-.2302632.225h-4.1907894c-.4835527 0-.875-.3825-.875-.855v-3.2625c0-.1845.1519737-.333.3407894-.333z" fill="#091d42" fill-rule="evenodd"/></svg>