<?xml version="1.0" encoding="UTF-8"?>
<svg width="24px" height="24px" viewBox="0 0 24 24" version="1.1" xmlns="http://www.w3.org/2000/svg" xmlns:xlink="http://www.w3.org/1999/xlink">
    <title>Icon/Categories/File/export</title>
    <g id="Icon/Categories/File/export" stroke="none" stroke-width="1" fill="none" fill-rule="evenodd">
        <path d="M5.25,12 C5.66421356,12 6,12.3357864 6,12.75 C6,13.1642136 5.66421356,13.5 5.25,13.5 L4.5,13.5 L4.5,18.5 L19.5,18.5 L19.5,13.5 L18.75,13.5 C18.3357864,13.5 18,13.1642136 18,12.75 C18,12.3357864 18.3357864,12 18.75,12 L20.25,12 C20.6642136,12 21,12.3357864 21,12.75 L21,19.25 L21,19.25 C21,19.6296958 20.7178461,19.943491 20.3517706,19.9931534 L20.25,20 L20.25,20 L3.75,20 L3.75,20 C3.33578644,20 3,19.6642136 3,19.25 L3,12.75 C3,12.3357864 3.33578644,12 3.75,12 L5.25,12 Z M11.9963837,4 C12.173454,4 12.3401085,4.06773185 12.4703073,4.19277527 L16.7929073,8.48593262 C17.0637208,8.74122959 17.0689288,9.16846127 16.8085312,9.43417853 C16.5481336,9.6998958 16.1158736,9.6998958 15.850268,9.43938868 L12.6786254,6.27683223 L12.6786254,15.3278916 C12.6786254,15.6978117 12.3765641,16 12.0015916,16 C11.6266191,16 11.3245579,15.6978117 11.3245579,15.3278916 L11.3245579,6.27683223 L8.15291518,9.44459882 C7.88730963,9.70510594 7.46025758,9.6998958 7.19465204,9.43938868 C6.93425444,9.17367141 6.93425444,8.75164988 7.19985999,8.48593262 L11.52246,4.19277527 C11.5849555,4.1354637 11.6526588,4.08857242 11.7359861,4.05210142 C11.8193133,4.01563043 11.9078485,4 11.9963837,4 Z" id="Shape" fill="#091D42"></path>
    </g>
</svg>