<?xml version="1.0" encoding="UTF-8"?>
<svg width="24px" height="24px" viewBox="0 0 24 24" version="1.1" xmlns="http://www.w3.org/2000/svg" xmlns:xlink="http://www.w3.org/1999/xlink">
    <title>fileTrayFull</title>
    <g id="fileTrayFull" stroke="none" stroke-width="1" fill="none" fill-rule="evenodd">
        <path d="M17.1428603,4 C18.4960746,4 19.4523246,4.82375 19.7006281,6.20375 L19.7006281,6.20375 L20.9863424,12.5291667 C20.9952986,12.5744141 21,12.620476 21,12.6666667 L21,12.6666667 L21,17.3333333 C21,18.8060927 19.8487353,20 18.4285746,20 L18.4285746,20 L5.57143171,20 C4.15127092,20 3,18.8060927 3,17.3333333 L3,17.3333333 L3,12.6666667 C3,12.6205039 3.00417391,12.5744422 3.01286028,12.5291667 L3.01286028,12.5291667 L4.29857456,6.20125 C4.42754778,5.51041667 4.71964599,4.96625 5.16562814,4.58083333 C5.61161028,4.19541667 6.18214599,4 6.85714599,4 L6.85714599,4 Z M17.1428603,5.33416667 L6.85513706,5.33416667 C6.11263706,5.33416667 5.70040492,5.69125 5.55777099,6.45916667 L5.55777099,6.45916667 L5.55777099,6.47083333 L4.47576206,11.7991667 C4.46583203,11.8483329 4.47781506,11.8995211 4.50837795,11.9384928 C4.53894084,11.9774645 4.5848231,12.0000622 4.63326206,12 L4.63326206,12 L9.42857456,12 C9.59821904,11.9991137 9.76125459,12.0681519 9.88181416,12.1919263 C10.0023737,12.3157008 10.0705814,12.4840724 10.0714317,12.66 C10.0714317,13.7645695 10.9348825,14.66 12.0000031,14.66 C13.0651237,14.66 13.9285746,13.7645695 13.9285746,12.66 C13.9307872,12.2939753 14.2184769,11.9989868 14.5714317,12.0008333 L14.5714317,12.0008333 L19.3667442,12.0008333 C19.4151832,12.0008955 19.4610654,11.9782979 19.4916283,11.9393261 C19.5221912,11.9003544 19.5341742,11.8491662 19.5242442,11.8 L19.5242442,11.8 L18.4422353,6.47166667 C18.4414317,6.46625 18.4394228,6.46083333 18.4394228,6.45541667 C18.3028156,5.69041667 17.8905835,5.33416667 17.1428603,5.33416667 L17.1428603,5.33416667 Z M17.1428603,9.33333333 C17.4979005,9.33333333 17.7857174,9.63181017 17.7857174,10 C17.7857174,10.3681898 17.4979005,10.6666667 17.1428603,10.6666667 L6.85714599,10.6666667 C6.5021058,10.6666667 6.21428885,10.3681898 6.21428885,10 C6.21428885,9.63181017 6.5021058,9.33333333 6.85714599,9.33333333 L17.1428603,9.33333333 Z M16.5000031,6.66666667 C16.8550433,6.66666667 17.1428603,6.9651435 17.1428603,7.33333333 C17.1428603,7.70152317 16.8550433,8 16.5000031,8 L7.50000314,8 C7.14496294,8 6.85714599,7.70152317 6.85714599,7.33333333 C6.85714599,6.9651435 7.14496294,6.66666667 7.50000314,6.66666667 L16.5000031,6.66666667 Z" id="shape" fill="#091D42"></path>
    </g>
</svg>