<?xml version="1.0" encoding="UTF-8"?>
<svg width="24px" height="24px" viewBox="0 0 24 24" version="1.1" xmlns="http://www.w3.org/2000/svg" xmlns:xlink="http://www.w3.org/1999/xlink">
    <title>Icon/Categories/File/import</title>
    <g id="Icon/Categories/File/import" stroke="none" stroke-width="1" fill="none" fill-rule="evenodd">
        <path d="M5.25,12 C5.66421356,12 6,12.3357864 6,12.75 C6,13.1642136 5.66421356,13.5 5.25,13.5 L4.5,13.5 L4.5,18.5 L19.5,18.5 L19.5,13.5 L18.75,13.5 C18.3357864,13.5 18,13.1642136 18,12.75 C18,12.3357864 18.3357864,12 18.75,12 L20.25,12 C20.6642136,12 21,12.3357864 21,12.75 L21,19.25 L21,19.25 C21,19.6296958 20.7178461,19.943491 20.3517706,19.9931534 L20.25,20 L20.25,20 L3.75,20 L3.75,20 C3.33578644,20 3,19.6642136 3,19.25 L3,12.75 C3,12.3357864 3.33578644,12 3.75,12 L5.25,12 Z M12.0015916,4 C12.3765641,4 12.6786254,4.30218826 12.6786254,4.67210837 L12.6786254,4.67210837 L12.6786254,13.7231678 L15.850268,10.5606113 C16.1158736,10.3001042 16.5481336,10.3001042 16.8085312,10.5658215 C17.0689288,10.8315387 17.0637208,11.2587704 16.7929073,11.5140674 L16.7929073,11.5140674 L12.4703073,15.8072247 C12.3401085,15.9322681 12.173454,16 11.9963837,16 C11.9078485,16 11.8193133,15.9843696 11.7359861,15.9478986 C11.6526588,15.9114276 11.5849555,15.8645363 11.52246,15.8072247 L11.52246,15.8072247 L7.19985999,11.5140674 C6.93425444,11.2483501 6.93425444,10.8263286 7.19465204,10.5606113 C7.46025758,10.3001042 7.88730963,10.2948941 8.15291518,10.5554012 L8.15291518,10.5554012 L11.3245579,13.7231678 L11.3245579,4.67210837 C11.3245579,4.30218826 11.6266191,4 12.0015916,4 Z" id="Shape" fill="#091D42"></path>
    </g>
</svg>