<?xml version="1.0" encoding="UTF-8"?>
<svg width="24px" height="24px" viewBox="0 0 24 24" version="1.1" xmlns="http://www.w3.org/2000/svg" xmlns:xlink="http://www.w3.org/1999/xlink">
    <!-- Generator: Sketch 63 (92445) - https://sketch.com -->
    <title>Icon/Categories/File/table</title>
    <desc>Created with Sketch.</desc>
    <g id="Icon/Categories/File/table" stroke="none" stroke-width="1" fill="none" fill-rule="evenodd">
        <path d="M8.08696875,16.9523956 L8.08696875,20 L3,20 L3,16.9523956 L8.08696875,16.9523956 Z M14.7391289,16.9523956 L14.7391289,20 L9.26087109,20 L9.26087109,16.9523956 L14.7391289,16.9523956 Z M21,16.9523956 L21,20 L15.9130313,20 L15.9130313,16.9523956 L21,16.9523956 Z M8.08696875,12.7619097 L8.08696875,15.809514 L3,15.809514 L3,12.7619097 L8.08696875,12.7619097 Z M14.7391289,12.7619097 L14.7391289,15.809514 L9.26087109,15.809514 L9.26087109,12.7619097 L14.7391289,12.7619097 Z M21,12.7619097 L21,15.809514 L15.9130313,15.809514 L15.9130313,12.7619097 L21,12.7619097 Z M8.08696875,8.57142368 L8.08696875,11.6190281 L3,11.6190281 L3,8.57142368 L8.08696875,8.57142368 Z M14.7391289,8.57142368 L14.7391289,11.6190281 L9.26087109,11.6190281 L9.26087109,8.57142368 L14.7391289,8.57142368 Z M21,8.57142368 L21,11.6190281 L15.9130313,11.6190281 L15.9130313,8.57142368 L21,8.57142368 Z M21,4 L21,7.42857632 L3,7.42857632 L3,4 L21,4 Z" id="Combined-Shape" fill="#091D42"></path>
    </g>
</svg>