<svg height="24" viewBox="0 0 24 24" width="24" xmlns="http://www.w3.org/2000/svg"><path d="m19.81875 8c-.1325893 0-.2611607.03515625-.3736607.10546875l-3.4754464 2.13281245c-.1004465.0625-.1607143.1679688-.1607143.28125v2.96875c0 .1132813.0602678.21875.1607143.28125l3.4754464 2.1328126c.1125.0664062.2410714.1054687.3736607.1054687h.8357143c.1928571 0 .3455357-.1484375.3455357-.3320313v-7.34374995c0-.18359375-.1566964-.33203125-.3455357-.33203125zm-7.115625 9h-7.63392857c-1.13705357 0-2.06919643-.90625-2.06919643-2.0078125v-5.984375c0-1.10546875.93214286-2.0078125 2.06517857-2.0078125h7.63392853c1.1370536 0 2.0651916.90625 2.0651916 2.0078125v5.9804687c.0040049 1.1054688-.9241201 2.0117188-2.0611737 2.0117188z" fill="#091d42" fill-rule="evenodd"/></svg>