<?xml version="1.0" encoding="UTF-8"?>
<svg width="24px" height="24px" viewBox="0 0 24 24" version="1.1" xmlns="http://www.w3.org/2000/svg" xmlns:xlink="http://www.w3.org/1999/xlink">
    <!-- Generator: Sketch 64 (93537) - https://sketch.com -->
    <title>Icon/Categories/Action/apps</title>
    <desc>Created with Sketch.</desc>
    <g id="Icon/Categories/Action/apps" stroke="none" stroke-width="1" fill="none" fill-rule="evenodd">
        <path d="M6.00781047,15.0721958 C6.1827649,14.9930343 6.38687842,14.9930343 6.56183286,15.0721958 L6.56183286,15.0721958 L10.7190836,16.9679057 C11.4230669,17.2887182 12.5810987,17.2887182 13.285082,16.9679057 L13.285082,16.9679057 L17.4423327,15.0721958 C17.6172872,14.9930343 17.8214007,14.9930343 17.9963551,15.0721958 L17.9963551,15.0721958 L19.4501432,15.7346527 C20.1832856,16.0679643 20.1832856,16.6137621 19.4501432,16.9470738 L19.4501432,16.9470738 L13.285082,19.7593907 C12.5810987,20.0802031 11.4230669,20.0802031 10.7190836,19.7593907 L10.7190836,19.7593907 L4.55402239,16.9470738 C3.82087998,16.6137621 3.82087998,16.0679643 4.55402239,15.7346527 L4.55402239,15.7346527 Z M5.87034626,10.8016405 C6.0453007,10.722479 6.24524863,10.722479 6.42020307,10.8016405 L6.42020307,10.8016405 L10.9190315,12.8390079 C11.5563655,13.0556604 12.4436345,13.0556604 13.0809685,12.8390079 L13.0809685,12.8390079 L17.5797969,10.8016405 C17.7547514,10.722479 17.9546993,10.722479 18.1296537,10.8016405 L18.1296537,10.8016405 L19.4501432,11.4016015 C20.1832856,11.7349131 20.1832856,12.2807109 19.4459776,12.6140225 L19.4459776,12.6140225 L13.2809164,15.4263394 C12.5769331,15.7471519 11.4189013,15.7471519 10.714918,15.4263394 L10.714918,15.4263394 L4.54985681,12.6140225 C3.8167144,12.2807109 3.8167144,11.7349131 4.54985681,11.4016015 L4.54985681,11.4016015 Z M10.7732361,4.23123495 C11.4480604,3.92292168 12.5519396,3.92292168 13.2267639,4.23123495 L13.2267639,4.23123495 L19.4501432,7.06855022 C20.1832856,7.40186186 20.1832856,7.94765966 19.4501432,8.28097129 L19.4501432,8.28097129 L13.285082,11.0932882 C12.5810987,11.4141006 11.4230669,11.4141006 10.7190836,11.0932882 L10.7190836,11.0932882 L4.55402239,8.28097129 C3.82087998,7.94765966 3.82087998,7.40186186 4.55402239,7.06855022 L4.55402239,7.06855022 Z" id="Combined-Shape" fill="#091D42"></path>
    </g>
</svg>