<?xml version="1.0" encoding="UTF-8"?>
<svg width="24px" height="24px" viewBox="0 0 24 24" version="1.1" xmlns="http://www.w3.org/2000/svg" xmlns:xlink="http://www.w3.org/1999/xlink">
    <title>Icon/Categories/Action/Bubbles</title>
    <g id="Icon/Categories/Action/Bubbles" stroke="none" stroke-width="1" fill="none" fill-rule="evenodd">
        <path d="M15,15 C16.6568542,15 18,16.3431458 18,18 C18,19.6568542 16.6568542,21 15,21 C13.3431458,21 12,19.6568542 12,18 C12,16.3431458 13.3431458,15 15,15 Z M7,10 C9.209139,10 11,11.790861 11,14 C11,16.209139 9.209139,18 7,18 C4.790861,18 3,16.209139 3,14 C3,11.790861 4.790861,10 7,10 Z M16,3 C18.7614237,3 21,5.23857625 21,8 C21,10.7614237 18.7614237,13 16,13 C13.2385763,13 11,10.7614237 11,8 C11,5.23857625 13.2385763,3 16,3 Z" id="Combined-Shape" fill="#091D42"></path>
    </g>
</svg>