<?xml version="1.0" encoding="UTF-8"?>
<svg width="24px" height="24px" viewBox="0 0 24 24" version="1.1" xmlns="http://www.w3.org/2000/svg" xmlns:xlink="http://www.w3.org/1999/xlink">
    <title>thunderbolt</title>
    <g id="thunderbolt" stroke="none" stroke-width="1" fill="none" fill-rule="evenodd">
        <path d="M9.566683,21 C9.35085008,21 9.14599158,20.910323 9.00710294,20.7545674 C8.86821429,20.5988119 8.8095249,20.3931093 8.84679026,20.1926817 L8.84679026,20.188557 L9.96481152,14.4004657 L5.63630728,14.4004657 C5.39109811,14.4004409 5.16771853,14.2675935 5.06208396,14.058966 C4.9564494,13.8503386 4.9873549,13.6030511 5.14153017,13.4232847 L13.858596,3.26375204 C14.0625177,3.01970773 14.4139862,2.93374956 14.7180252,3.05356266 C15.0220642,3.17337575 15.2041018,3.46957346 15.163153,3.77784075 C15.163153,3.78908995 15.1599712,3.79996418 15.1579825,3.81121339 L14.0359839,9.60080461 L18.3636927,9.60080461 C18.6089019,9.60082946 18.8322815,9.73367682 18.937916,9.94230428 C19.0435506,10.1509317 19.0126451,10.3982192 18.8584698,10.5779856 L10.1402108,20.7375183 C10.0014397,20.9028261 9.79029279,20.9994598 9.566683,21 Z" id="shape" fill="#091D42"></path>
    </g>
</svg>