<?xml version="1.0" encoding="UTF-8"?>
<svg width="24px" height="24px" viewBox="0 0 24 24" version="1.1" xmlns="http://www.w3.org/2000/svg" xmlns:xlink="http://www.w3.org/1999/xlink">
    <!-- Generator: Sketch 60 (88103) - https://sketch.com -->
    <title>Icon/Categories/Action/funnel</title>
    <desc>Created with Sketch.</desc>
    <g id="Icon/Categories/Action/funnel" stroke="none" stroke-width="1" fill="none" fill-rule="evenodd">
        <path d="M3,5.03111847 C3,5.28779174 3.08653846,5.53561421 3.24230769,5.72590646 L9.82788462,13.6827778 C9.98365385,13.87307 10.0701923,14.1208925 10.0701923,14.3775657 L10.0701923,19.112745 C10.0701923,19.5552851 10.3254808,19.9447204 10.7019231,20.0863333 L13.0817308,20.9625627 C13.4971154,21.1174517 13.9298077,20.7722704 13.9298077,20.2854763 L13.9298077,14.3731403 C13.9298077,14.1164671 14.0163462,13.8686446 14.1721154,13.6783524 L20.7576923,5.72148106 C20.9134615,5.53118881 21,5.28336634 21,5.02669307 C21,4.46024172 20.5846154,4 20.0740385,4 L3.92596154,4 C3.41538462,4.0044254 3,4.46466712 3,5.03111847 Z" id="Shape" fill="#091D42"></path>
    </g>
</svg>