<?xml version="1.0" encoding="UTF-8"?>
<svg width="24px" height="24px" viewBox="0 0 24 24" version="1.1" xmlns="http://www.w3.org/2000/svg" xmlns:xlink="http://www.w3.org/1999/xlink">
    <!-- Generator: Sketch 64 (93537) - https://sketch.com -->
    <title>Icon/Categories/Action/gitBranch</title>
    <desc>Created with Sketch.</desc>
    <g id="Icon/Categories/Action/gitBranch" stroke="none" stroke-width="1" fill="none" fill-rule="evenodd">
        <path d="M16.2621125,5.57142857 C14.7502134,5.57142857 13.5203267,6.83303571 13.5203267,8.38392857 C13.5203267,9.72589286 14.448617,10.8709821 15.7098385,11.1361607 C15.6628364,11.9035714 15.3064043,12.3133929 14.6522925,12.8316964 C13.8532578,13.4625 11.8231297,13.6352679 11.0945981,13.771875 C9.5004455,14.0691964 8.63090773,14.8566964 8.25489139,15.3790179 L8.25489139,8.57678571 C8.84241691,8.46428571 9.37902356,8.15491071 9.78245775,7.696875 C10.2368108,7.17857143 10.4874884,6.51160714 10.4874884,5.8125 C10.4874884,4.26160714 9.25760162,3 7.74570261,3 C6.2338036,3 5.00391684,4.26160714 5.00391684,5.8125 C5.00391684,6.49553571 5.24676072,7.15044643 5.68152961,7.66473214 C6.06929645,8.11875 6.58631891,8.43214286 7.15817708,8.56071429 L7.15817708,15.4433036 C6.59023575,15.571875 6.06929645,15.8852679 5.68152961,16.3392857 C5.24284388,16.8495536 5,17.5044643 5,18.1875 C5,19.7383929 6.22988676,21 7.74178577,21 C9.25368478,21 10.4835715,19.7383929 10.4835715,18.1875 C10.4835715,17.2473214 10.0292185,16.3834821 9.28110264,15.8611607 C9.6179506,15.4714286 10.2407277,15.0736607 11.2826062,14.8808036 C12.128643,14.7241071 14.3428624,14.4950893 15.3142379,13.7236607 C16.2386114,12.9924107 16.7517171,12.2571429 16.8026359,11.1401786 C18.0677742,10.8790179 19,9.72991071 19,8.38392857 C19.0038982,6.83303571 17.7740115,5.57142857 16.2621125,5.57142857 Z M6.09671431,5.8125 C6.09671431,4.88035714 6.83307963,4.125 7.74178577,4.125 C8.65049191,4.125 9.38685723,4.88035714 9.38685723,5.8125 C9.38685723,6.74464286 8.65049191,7.5 7.74178577,7.5 C6.83307963,7.5 6.09671431,6.74464286 6.09671431,5.8125 Z M9.38685723,18.1875 C9.38685723,19.1196429 8.65049191,19.875 7.74178577,19.875 C6.83307963,19.875 6.09671431,19.1196429 6.09671431,18.1875 C6.09671431,17.2553571 6.83307963,16.5 7.74178577,16.5 C8.65049191,16.5 9.38685723,17.2553571 9.38685723,18.1875 Z M16.2621125,10.0714286 C15.3534063,10.0714286 14.617041,9.31607143 14.617041,8.38392857 C14.617041,7.45178571 15.3534063,6.69642857 16.2621125,6.69642857 C17.1708186,6.69642857 17.9071839,7.45178571 17.9071839,8.38392857 C17.9071839,9.31607143 17.1708186,10.0714286 16.2621125,10.0714286 Z" id="Shape" fill="#091D42"></path>
    </g>
</svg>