<?xml version="1.0" encoding="UTF-8"?>
<svg width="24px" height="24px" viewBox="0 0 24 24" version="1.1" xmlns="http://www.w3.org/2000/svg" xmlns:xlink="http://www.w3.org/1999/xlink">
    <title>Icon/Categories/Action/mic</title>
    <g id="Icon/Categories/Action/mic" stroke="none" stroke-width="1" fill="none" fill-rule="evenodd">
        <path d="M17.3276471,9.23117647 C17.7098824,9.23117647 18.0211765,9.54141176 18.0211765,9.92258824 L18.0211765,9.92258824 L18.0211765,11.3075294 C18.0211765,14.5094118 15.5932941,17.1532941 12.4824706,17.4995294 L12.4824706,17.4995294 L12.4824706,19.6150588 L14.5588235,19.6150588 C14.94,19.6150588 15.2523529,19.9263529 15.2523529,20.3064706 C15.2523529,20.6887059 14.94,21 14.5588235,21 L14.5588235,21 L9.02117647,21 C8.64,21 8.32870588,20.6887059 8.32870588,20.3064706 C8.32870588,19.9263529 8.64,19.6150588 9.02117647,19.6150588 L9.02117647,19.6150588 L11.0975294,19.6150588 L11.0975294,17.4995294 C7.98670588,17.1532941 5.55882353,14.5094118 5.55882353,11.3075294 L5.55882353,11.3075294 L5.55882353,9.92258824 C5.55882353,9.54141176 5.87117647,9.23117647 6.25129412,9.23117647 C6.63247059,9.23117647 6.94376471,9.54141176 6.94376471,9.92258824 L6.94376471,9.92258824 L6.94376471,11.3075294 C6.94376471,13.9821176 9.11647059,16.1537647 11.79,16.1537647 C14.4635294,16.1537647 16.6362353,13.9821176 16.6362353,11.3075294 L16.6362353,11.3075294 L16.6362353,9.92258824 C16.6362353,9.54141176 16.9475294,9.23117647 17.3276471,9.23117647 Z M11.79,3 C13.7329412,3 15.2523529,4.51835294 15.2523529,6.46129412 L15.2523529,11.2641176 C15.2523529,13.1985882 13.698,14.7688235 11.79,14.7688235 C10.8677647,14.7688235 9.98576471,14.3929412 9.34094118,13.7269412 C8.69188235,13.0725882 8.3286711,12.1863529 8.3286711,11.2641176 L8.3286711,6.46129412 C8.32023529,4.55752941 9.85976471,3.00847059 11.7645882,3 L11.79,3 Z" id="Combined-Shape" fill="#091D42"></path>
    </g>
</svg>