<?xml version="1.0" encoding="UTF-8"?>
<svg width="24px" height="24px" viewBox="0 0 24 24" version="1.1" xmlns="http://www.w3.org/2000/svg" xmlns:xlink="http://www.w3.org/1999/xlink">
    <title>objects</title>
    <g id="objects" stroke="none" stroke-width="1" fill="none" fill-rule="evenodd">
        <path d="M4.1801454,8.26411934 L4.23077558,8.28328834 L11.3076958,12.595231 C11.3552472,12.6239076 11.3846189,12.6768821 11.3846189,12.7342353 L11.3846189,12.7342353 L11.3846189,20.8394662 C11.3846189,20.8968488 11.3552174,20.9498458 11.3076275,20.9785117 C11.2600377,21.0071775 11.2014255,21.0071618 11.1538497,20.9784704 L11.1538497,20.9784704 L4.91692915,17.0722915 C4.35022236,16.7274834 4.00118801,16.094514 4.00000319,15.4094637 L4.00000319,15.4094637 L4.00000319,8.42349779 C3.99964875,8.3659 4.02883034,8.31250727 4.07649614,8.28354674 C4.12416195,8.25458621 4.18302111,8.25448763 4.23077558,8.28328834 Z M19.8724367,8.26572518 L19.9228427,8.28475319 C19.9704075,8.31332115 19.9998068,8.36618698 20,8.42349779 L20,8.42349779 L20,15.4094637 C19.9980564,16.0938785 19.6489559,16.725938 19.0826927,17.0702827 L19.0826927,17.0702827 L12.8461567,20.9764617 C12.798581,21.0051531 12.7399687,21.0051688 12.6923789,20.9765029 C12.644789,20.9478371 12.6153876,20.8948401 12.6153876,20.8374575 L12.6153876,20.8374575 L12.6153876,12.7623575 C12.6155809,12.7051479 12.6448779,12.6523596 12.6923106,12.623755 L12.6923106,12.623755 L19.7692309,8.28489532 C19.8167472,8.25623939 19.8752779,8.25618523 19.9228427,8.28475319 Z M10.762696,3.34743368 C11.5278193,2.88418877 12.4718025,2.88418877 13.2369258,3.34743368 L13.2369258,3.34743368 L19.1115388,6.91253007 C19.1587988,6.94133008 19.1878587,6.99418153 19.1878587,7.05133341 C19.1878587,7.10848528 19.1587988,7.16133674 19.1115388,7.19013674 L19.1115388,7.19013674 L12.079234,11.5121231 C12.0310509,11.5417662 11.9712633,11.5417662 11.9230802,11.5121231 L11.9230802,11.5121231 L4.88923685,7.19013674 C4.84197691,7.16133674 4.81291697,7.10848528 4.81291697,7.05133341 C4.81291697,6.99418153 4.84197691,6.94133008 4.88923685,6.91253007 L4.88923685,6.91253007 Z" id="shape" fill="#091D42"></path>
    </g>
</svg>