<?xml version="1.0" encoding="UTF-8"?>
<svg width="24px" height="24px" viewBox="0 0 24 24" version="1.1" xmlns="http://www.w3.org/2000/svg" xmlns:xlink="http://www.w3.org/1999/xlink">
    <!-- Generator: Sketch 64 (93537) - https://sketch.com -->
    <title>Icon/Categories/Action/options</title>
    <desc>Created with Sketch.</desc>
    <g id="Icon/Categories/Action/options" stroke="none" stroke-width="1" fill="none" fill-rule="evenodd">
        <path d="M13.8735577,17.1136364 C14.1418269,16.5127841 14.7519231,16.0909091 15.4615385,16.0909091 C16.1711538,16.0909091 16.78125,16.5127841 17.0495192,17.1136364 L20.3076923,17.1136364 C20.6884615,17.1136364 21,17.4204545 21,17.7954545 C21,18.1704545 20.6884615,18.4772727 20.3076923,18.4772727 L17.0495192,18.4772727 C16.78125,19.078125 16.1711538,19.5 15.4615385,19.5 C14.7519231,19.5 14.1418269,19.078125 13.8735577,18.4772727 L3.69230769,18.4772727 C3.31153846,18.4772727 3,18.1704545 3,17.7954545 C3,17.4204545 3.31153846,17.1136364 3.69230769,17.1136364 L13.8735577,17.1136364 Z M6.95048077,11.3181818 C7.21875,10.7173295 7.82884615,10.2954545 8.53846154,10.2954545 C9.24807692,10.2954545 9.85817308,10.7173295 10.1264423,11.3181818 L20.3076923,11.3181818 C20.6884615,11.3181818 21,11.625 21,12 C21,12.375 20.6884615,12.6818182 20.3076923,12.6818182 L10.1264423,12.6818182 C9.85817308,13.2826705 9.24807692,13.7045455 8.53846154,13.7045455 C7.82884615,13.7045455 7.21875,13.2826705 6.95048077,12.6818182 L3.69230769,12.6818182 C3.31153846,12.6818182 3,12.375 3,12 C3,11.625 3.31153846,11.3181818 3.69230769,11.3181818 L6.95048077,11.3181818 Z M13.8735577,5.52272727 C14.1418269,4.921875 14.7519231,4.5 15.4615385,4.5 C16.1711538,4.5 16.78125,4.921875 17.0495192,5.52272727 L20.3076923,5.52272727 C20.6884615,5.52272727 21,5.82954545 21,6.20454545 C21,6.57954545 20.6884615,6.88636364 20.3076923,6.88636364 L17.0495192,6.88636364 C16.78125,7.48721591 16.1711538,7.90909091 15.4615385,7.90909091 C14.7519231,7.90909091 14.1418269,7.48721591 13.8735577,6.88636364 L3.69230769,6.88636364 C3.31153846,6.88636364 3,6.57954545 3,6.20454545 C3,5.82954545 3.31153846,5.52272727 3.69230769,5.52272727 L13.8735577,5.52272727 Z" id="Shape" fill="#091D42"></path>
    </g>
</svg>