<?xml version="1.0" encoding="UTF-8"?>
<svg width="24px" height="24px" viewBox="0 0 24 24" version="1.1" xmlns="http://www.w3.org/2000/svg" xmlns:xlink="http://www.w3.org/1999/xlink">
    <title>reply</title>
    <g id="reply" stroke="none" stroke-width="1" fill="none" fill-rule="evenodd">
        <path d="M19.3826356,20 C19.1931767,20 19.0142712,19.9013707 18.8976356,19.7325734 C18.0184048,18.459797 17.2026356,17.4774936 16.0776356,16.819146 C15.0364817,16.2116746 13.7287894,15.8946763 11.9980202,15.8355381 L11.9980202,19.3042561 C11.9972702,19.5818111 11.8506778,19.832309 11.625025,19.9416324 C11.3993722,20.0509558 11.1378345,19.9981872 10.9595587,19.8073659 L4.19032788,12.5020552 C4.0687685,12.3707814 4,12.1889998 4,11.9989454 C4,11.808891 4.0687685,11.6271095 4.19032788,11.4958356 L10.9595587,4.19052492 C11.1378345,3.99970366 11.3993722,3.94693502 11.625025,4.05625841 C11.8506778,4.16558179 11.9972702,4.41607969 11.9980202,4.69363471 L11.9980202,8.18800833 C14.8495587,8.33628875 16.974174,9.53209854 18.319174,11.7480428 C19.4334048,13.5835021 19.9980202,16.1255763 19.9980202,19.3042561 C19.9980202,19.6885049 19.7225031,20 19.3826356,20 Z" id="shape" fill="#091D42"></path>
    </g>
</svg>