<?xml version="1.0" encoding="UTF-8"?>
<svg width="24px" height="24px" viewBox="0 0 24 24" version="1.1" xmlns="http://www.w3.org/2000/svg" xmlns:xlink="http://www.w3.org/1999/xlink">
    <!-- Generator: Sketch 64 (93537) - https://sketch.com -->
    <title>Icon/Categories/Action/rotate</title>
    <desc>Created with Sketch.</desc>
    <g id="Icon/Categories/Action/rotate" stroke="none" stroke-width="1" fill="none" fill-rule="evenodd">
        <path d="M18,10 C19.1045695,10 20,10.8954305 20,12 L20,18 C20,19.1045695 19.1045695,20 18,20 L10,20 C8.8954305,20 8,19.1045695 8,18 L8,12 C8,10.8954305 8.8954305,10 10,10 L18,10 Z M11.0033255,4.57118059 C11.0033255,4.1210986 11.4783974,3.84962057 11.8441001,4.08894988 L11.8441001,4.08894988 L14.4971193,5.88980586 C14.8388976,6.11484686 14.8388976,6.90823688 14.4971193,7.13327788 L14.4971193,7.13327788 L11.8406824,8.96612119 C11.4749796,9.20545051 10.9999078,8.93397248 10.9999078,8.48389048 L10.9999078,8.48389048 L10.9999078,7.25830065 C10.9999078,7.17614283 10.9383877,7.1118454 10.8597787,7.11541748 C7.90394778,7.13302676 5.29931641,9.46277614 5.29931641,12.8877497 C5.29931641,13.6235657 4.98822021,13.7973022 4.6496582,13.7973022 C4.31109619,13.7973022 4,13.6401672 4,12.8877497 C4,8.86768299 7.30963837,5.77549933 10.870032,5.77549933 C10.9452232,5.77549933 11.0033255,5.7112019 11.0033255,5.63261615 L11.0033255,5.63261615 Z" id="Combined-Shape" fill="#091D42"></path>
    </g>
</svg>