<?xml version="1.0" encoding="UTF-8"?>
<svg width="24px" height="24px" viewBox="0 0 24 24" version="1.1" xmlns="http://www.w3.org/2000/svg" xmlns:xlink="http://www.w3.org/1999/xlink">
    <title>Icon/Categories/Action/screen</title>
    <g id="Icon/Categories/Action/screen" stroke="none" stroke-width="1" fill="none" fill-rule="evenodd">
        <path d="M17.4029765,18.4082854 C17.4029765,18.0833838 17.131977,17.8175553 16.8019775,17.8175553 L7.20099315,17.8175553 C6.87099369,17.8175553 6.59999413,18.0833838 6.59999413,18.4082854 C6.59999413,18.7331869 6.87099369,19 7.20099315,19 L16.8019775,19 C17.131977,19 17.4029765,18.7331869 17.4029765,18.4082854 M19.1989736,17.2268252 L4.80299706,17.2268252 C3.80999868,17.2268252 3,16.4293396 3,15.4506968 L3,7.777113 C3,6.79847016 3.80999868,6 4.80299706,6 L19.1959736,6 C20.192972,6 20.9999854,6.79847016 20.9999854,7.777113 L20.9999854,15.4467586 C21.0039706,16.4293396 20.192972,17.2268252 19.1989736,17.2268252" id="Fill-5" fill="#091D42"></path>
    </g>
</svg>