<?xml version="1.0" encoding="UTF-8"?>
<svg width="24px" height="24px" viewBox="0 0 24 24" version="1.1" xmlns="http://www.w3.org/2000/svg" xmlns:xlink="http://www.w3.org/1999/xlink">
    <!-- Generator: Sketch 63.1 (92452) - https://sketch.com -->
    <title>Icon/Categories/Action/share</title>
    <desc>Created with Sketch.</desc>
    <g id="Icon/Categories/Action/share" stroke="none" stroke-width="1" fill="none" fill-rule="evenodd">
        <path d="M17.1666278,15.4588891 C16.3955984,15.4586055 15.6579956,15.7667283 15.1251174,16.3117001 L8.57386954,12.7069502 C8.70076901,12.2409019 8.70076901,11.7504925 8.57386954,11.2844442 L15.1251174,7.67969428 C16.1120926,8.68041413 17.7058557,8.80761369 18.8456816,7.9766356 C19.9855074,7.14565751 20.3160071,5.61559428 19.6172173,4.40477584 C18.9184276,3.19395739 17.4082256,2.6799075 16.0917227,3.20475084 C14.7752199,3.72959419 14.0628914,5.12968869 14.4288259,6.4732048 L7.87757813,10.0779547 C7.0769899,9.2616034 5.84935511,9.00318176 4.77622736,9.42510893 C3.7030996,9.84703609 3,10.8645745 3,11.9956972 C3,13.1268199 3.7030996,14.1443583 4.77622736,14.5662855 C5.84935511,14.9882126 7.0769899,14.729791 7.87757813,13.9134397 L14.4288259,17.5181896 C14.1173951,18.6648213 14.5870447,19.8781153 15.5968287,20.5356107 C16.6066127,21.1931062 17.9323891,21.1488586 18.8939898,20.4255686 C19.8555905,19.7022786 20.2395688,18.4604949 19.8489308,17.3372946 C19.4582929,16.2140943 18.3797487,15.4587943 17.1666278,15.4588891 Z" id="Path" fill="#091D42"></path>
    </g>
</svg>