<?xml version="1.0" encoding="UTF-8"?>
<svg width="24px" height="24px" viewBox="0 0 24 24" version="1.1" xmlns="http://www.w3.org/2000/svg" xmlns:xlink="http://www.w3.org/1999/xlink">
    <!-- Generator: Sketch 64 (93537) - https://sketch.com -->
    <title>Icon/Categories/Action/trash</title>
    <desc>Created with Sketch.</desc>
    <g id="Icon/Categories/Action/trash" stroke="none" stroke-width="1" fill="none" fill-rule="evenodd">
        <path d="M5.76594203,6 L6.96304348,19.6265625 C6.96304348,20.3859375 7.62753623,21 8.44927536,21 L15.6014493,21 C16.4231884,21 17.0876812,20.3859375 17.0876812,19.6265625 L18.2695652,6 L5.76594203,6 Z M8.89057971,18.421875 L8.55072464,7.5 L9.48913043,7.5 L9.83913043,18.421875 L8.89057971,18.421875 L8.89057971,18.421875 Z M12.4565217,18.421875 L11.5434783,18.421875 L11.5434783,7.5 L12.4565217,7.5 L12.4565217,18.421875 Z M15.1094203,18.421875 L14.165942,18.421875 L14.5108696,7.5 L15.4492754,7.5 L15.1094203,18.421875 Z M17.4782609,4.3125 L15.6521739,4.3125 L14.3181159,3.234375 C14.1304348,3.084375 13.892029,3 13.6485507,3 L10.3615942,3 C10.1130435,3 9.86956522,3.084375 9.68188406,3.234375 L8.34782609,4.3125 L6.52173913,4.3125 C5.62898551,4.3125 5,4.70625 5,5.53125 L19,5.53125 C19,4.70625 18.3710145,4.3125 17.4782609,4.3125 Z" id="Shape" fill="#091D42"></path>
    </g>
</svg>