<?xml version="1.0" encoding="UTF-8"?>
<svg width="24px" height="24px" viewBox="0 0 24 24" version="1.1" xmlns="http://www.w3.org/2000/svg" xmlns:xlink="http://www.w3.org/1999/xlink">
    <!-- Generator: Sketch 63.1 (92452) - https://sketch.com -->
    <title>Icon/Categories/Action/unlock</title>
    <desc>Created with Sketch.</desc>
    <g id="Icon/Categories/Action/unlock" stroke="none" stroke-width="1" fill="none" fill-rule="evenodd">
        <path d="M17.25,9.23100494 L9.025,9.23100494 L9.025,7.15412346 C9.025,6.37096607 9.335625,5.63540388 9.9,5.07724198 C10.464375,4.51908008 11.208125,4.2118747 12,4.2118747 C12.791875,4.2118747 13.535625,4.51908008 14.1,5.07724198 C14.1838849,5.16020336 14.2621639,5.24708383 14.3346504,5.33745718 C14.4383936,5.46680011 14.796875,5.98553467 15.2904663,5.63543701 C15.7840576,5.28533936 15.4721864,4.81567414 15.3452729,4.65047057 C14.5659151,3.63597852 13.3274882,2.98241319 11.943125,3.0003605 C9.6375,3.03064835 7.8,4.9258027 7.8,7.21037233 L7.8,9.23100494 L6.75,9.23100494 C5.7875,9.23100494 5,10.0098355 5,10.9617395 L5,19.2692654 C5,20.2211694 5.7875,21 6.75,21 L17.25,21 C18.2125,21 19,20.2211694 19,19.2692654 L19,10.9617395 C19,10.0098355 18.2125,9.23100494 17.25,9.23100494 Z M12.6125,14.6308968 L12.6125,17.6077602 C12.6125,17.932273 12.35875,18.2135173 12.030625,18.2308247 C11.680625,18.248132 11.3875,17.9712145 11.3875,17.6250676 L11.3875,14.6308968 C10.884375,14.388594 10.551875,13.8607199 10.604375,13.2592896 C10.665625,12.58863 11.22125,12.0521023 11.899375,12.0045071 C12.7175,11.9482582 13.4,12.58863 13.4,13.3847679 C13.4,13.9342761 13.080625,14.4059013 12.6125,14.6308968 Z" id="Shape" fill="#091D42"></path>
    </g>
</svg>