<?xml version="1.0" encoding="UTF-8"?>
<svg width="24px" height="24px" viewBox="0 0 24 24" version="1.1" xmlns="http://www.w3.org/2000/svg" xmlns:xlink="http://www.w3.org/1999/xlink">
    <title>Icon/Categories/Action/videoCam</title>
    <g id="Icon/Categories/Action/videoCam" stroke="none" stroke-width="1" fill="none" fill-rule="evenodd">
        <path d="M12.45,17 L5.55,17 C4.143,17 3,15.9398148 3,14.637963 L3,9.36111111 C3,8.05833333 4.143,7 5.55,7 L12.469,7 C13.867,7 15,8.04814815 15,9.34351852 L15,14.637963 C15,15.9398148 13.856,17 12.45,17 M19.8,16.4583333 C19.631,16.4583333 19.466,16.4268519 19.312,16.3611111 C19.275,16.3472222 19.241,16.3287037 19.211,16.3083333 L16.11,14.287963 C15.791,14.0796296 15.599,13.7398148 15.599,13.3777778 L15.599,10.6212963 C15.599,10.2601852 15.791,9.92037037 16.11,9.71111111 L19.211,7.69074074 C19.245,7.66944444 19.278,7.65277778 19.312,7.63888889 C19.916,7.38888889 20.629,7.64259259 20.894,8.20092593 C20.963,8.34351852 21,8.4962963 21,8.65185185 L21,15.3472222 C21,15.9611111 20.464,16.4583333 19.8,16.4583333" id="Fill-7" fill="#091D42"></path>
    </g>
</svg>