<?xml version="1.0" encoding="UTF-8"?>
<svg width="24px" height="24px" viewBox="0 0 24 24" version="1.1" xmlns="http://www.w3.org/2000/svg" xmlns:xlink="http://www.w3.org/1999/xlink">
    <title>Icon/Categories/Action/videoCamOff</title>
    <g id="Icon/Categories/Action/videoCamOff" stroke="none" stroke-width="1" fill="none" fill-rule="evenodd">
        <path d="M5.76558687,5.37350946 L18.4087518,17.3011495 C18.6414322,17.5196835 18.6544148,17.8957989 18.4374043,18.1312322 C18.3293812,18.2484257 18.1804646,18.3114487 18.0305539,18.3166837 C17.8816425,18.3218838 17.7286078,18.265601 17.6127672,18.1563163 L4.97373949,6.2325793 C4.74102417,6.01303422 4.72807645,5.63792985 4.945087,5.40249658 C5.16209755,5.16706331 5.53287155,5.15396438 5.76558687,5.37350946 Z M4.279,7.33444448 C4.32,7.3142109 4.377,7.31697002 4.414,7.35191894 L4.414,7.35191894 L14.094,16.2546966 C14.139,16.2960835 14.135,16.3687404 14.087,16.4064485 C13.644,16.7476603 13.074,16.9555144 12.452,16.9555144 L12.452,16.9555144 L5.55,16.9555144 C4.143,16.9555144 3,15.9024483 3,14.6093382 L3,14.6093382 L3,9.36608041 C3,8.49695594 3.513,7.74095561 4.279,7.33444448 Z M19.315,7.65542272 C19.92,7.40710145 20.628,7.65910156 20.898,8.21368574 C20.969,8.35532084 21.004,8.50707274 21,8.66250346 L21,8.66250346 L21,15.310156 C21,15.9199227 20.463,16.4138061 19.799,16.4138061 C19.623,16.4138061 19.45,16.3788572 19.293,16.3098791 C19.266,16.2997623 19.237,16.2832076 19.211,16.2657331 L19.211,16.2657331 L19.173,16.2418207 L15.632,12.9851331 C15.613,12.9676586 15.602,12.9437462 15.602,12.9152353 L15.602,12.9152353 L15.602,10.6178036 C15.602,10.260037 15.794,9.92158431 16.112,9.71464991 L16.112,9.71464991 L19.215,7.7069264 C19.244,7.6857731 19.278,7.66921835 19.315,7.65542272 Z M12.47,7.0208239 C13.869,7.0208239 15.002,8.06193385 15.002,9.34860595 L15.002,9.34860595 L15.002,12.2401693 C15.002,12.3017897 14.923,12.3330598 14.875,12.2879941 L14.875,12.2879941 L9.275,7.13762688 C9.226,7.09256116 9.259,7.0208239 9.327,7.0208239 L9.327,7.0208239 Z" id="Combined-Shape" fill="#091D42"></path>
    </g>
</svg>