<?xml version="1.0" encoding="UTF-8"?>
<svg width="24px" height="24px" viewBox="0 0 24 24" version="1.1" xmlns="http://www.w3.org/2000/svg" xmlns:xlink="http://www.w3.org/1999/xlink">
    <!-- Generator: Sketch 63 (92445) - https://sketch.com -->
    <title>Icon/Categories/Action/workflow</title>
    <desc>Created with Sketch.</desc>
    <g id="Icon/Categories/Action/workflow" stroke="none" stroke-width="1" fill="none" fill-rule="evenodd">
        <path d="M11.1120536,14.896875 C11.0075893,14.7924107 10.8669643,14.7321429 10.7142857,14.7321429 C10.565625,14.7321429 10.4209821,14.7883929 10.3165179,14.896875 C10.2120536,15.0013393 10.1517857,15.1419643 10.1517857,15.2946429 C10.1517857,15.4433036 10.2080357,15.5879464 10.3165179,15.6924107 L10.3205357,15.6964286 L11.971875,17.3075893 L8.38392857,17.3075893 C7.56428571,17.3075893 7.03392857,17.00625 6.7125,16.3633929 C6.375,15.6803571 6.33482143,14.6959821 6.33482143,14.0129464 L6.33482143,8.57678571 C6.9375,8.46428571 7.48794643,8.15491071 7.90178571,7.696875 C8.36785714,7.17857143 8.625,6.51160714 8.625,5.8125 C8.625,4.26160714 7.36339286,3 5.8125,3 C4.26160714,3 3,4.26160714 3,5.8125 C3,6.49553571 3.24910714,7.15044643 3.69508929,7.66473214 C4.09285714,8.11875 4.62321429,8.43214286 5.20982143,8.56071429 L5.20982143,14.0089286 C5.20982143,14.5995536 5.20982143,15.7004464 5.5875,16.6325893 C6.065625,17.8098214 7.03392857,18.4285714 8.38392857,18.4285714 L11.9879464,18.4285714 L10.3928571,20.04375 C10.1758929,20.2607143 10.1758929,20.6183036 10.3928571,20.8392857 L10.396875,20.8433036 C10.5053571,20.94375 10.6459821,21 10.790625,21 C10.9433036,21 11.0839286,20.94375 11.1883929,20.8352679 L13.5026786,18.5290179 C13.6714286,18.3602679 13.7638393,18.1352679 13.7638393,17.8982143 C13.7638393,17.6611607 13.6714286,17.4441964 13.5026786,17.2754464 L11.1120536,14.896875 Z M18.7901786,15.4392857 L18.7901786,9.99107143 C18.7901786,9.40044643 18.7901786,8.29955357 18.4125,7.36741071 C17.934375,6.19419643 16.9660714,5.57142857 15.6160714,5.57142857 L12.0120536,5.57142857 L13.6071429,3.95625 C13.8241071,3.73928571 13.8241071,3.38169643 13.6071429,3.16071429 L13.603125,3.15669643 C13.4946429,3.05625 13.3540179,3 13.209375,3 C13.0566964,3 12.9160714,3.05625 12.8116071,3.16473214 L10.4973214,5.47098214 C10.3285714,5.63973214 10.2361607,5.86473214 10.2361607,6.10178571 C10.2361607,6.33883929 10.3285714,6.55580357 10.4973214,6.72455357 L12.8919643,9.11116071 C12.9964286,9.215625 13.1370536,9.27589286 13.2897321,9.27589286 C13.4383929,9.27589286 13.5830357,9.21964286 13.6875,9.11116071 C13.7919643,9.00669643 13.8522321,8.86607143 13.8522321,8.71339286 C13.8522321,8.56473214 13.7959821,8.42008929 13.6875,8.315625 L13.6834821,8.31160714 L12.028125,6.69642857 L15.6160714,6.69642857 C16.4357143,6.69642857 16.9660714,6.99776786 17.2875,7.640625 C17.625,8.32366071 17.6651786,9.30803571 17.6651786,9.99107143 L17.6651786,15.4232143 C17.0625,15.5357143 16.5120536,15.8450893 16.0982143,16.303125 C15.6321429,16.8214286 15.375,17.4883929 15.375,18.1875 C15.375,19.7383929 16.6366071,21 18.1875,21 C19.7383929,21 21,19.7383929 21,18.1875 C21,17.5044643 20.7508929,16.8495536 20.3049107,16.3352679 C19.9071429,15.88125 19.3727679,15.5678571 18.7901786,15.4392857 L18.7901786,15.4392857 Z" id="Shape" fill="#091D42"></path>
    </g>
</svg>