<?xml version="1.0" encoding="UTF-8"?>
<svg width="24px" height="24px" viewBox="0 0 24 24" version="1.1" xmlns="http://www.w3.org/2000/svg" xmlns:xlink="http://www.w3.org/1999/xlink">
    <!-- Generator: Sketch 63.1 (92452) - https://sketch.com -->
    <title>Icon/Categories/Action/zoomOut</title>
    <desc>Created with Sketch.</desc>
    <g id="Icon/Categories/Action/zoomOut" stroke="none" stroke-width="1" fill="none" fill-rule="evenodd">
        <path d="M10.3790888,4 C13.9040458,4 16.7581776,6.85342359 16.7581776,10.3733403 C16.7581776,11.8771153 16.233184,13.2600885 15.3623613,14.351471 L15.3623613,14.351471 L19.812307,18.8419682 C20.0706372,19.1168966 20.0623039,19.5501172 19.7873073,19.8125488 C19.6581422,19.9375163 19.4873109,20 19.3164797,20 C19.1373152,20 18.9539841,19.9291851 18.8206524,19.7875553 L18.8206524,19.7875553 L14.399873,15.3262171 C13.2998865,16.2176517 11.9040702,16.7508461 10.3790888,16.7508461 C6.85413183,16.7508461 4,13.8974225 4,10.3775059 C4,6.85758917 6.85413183,4 10.3790888,4 Z M10.3790888,5.37464202 C9.04160512,5.37464202 7.78328715,5.89533976 6.83746536,6.84092684 C5.89164358,7.78234835 5.3708166,9.04035407 5.3708166,10.3775059 C5.3708166,11.7104921 5.89164358,12.9684978 6.83746536,13.9140849 C7.78328715,14.859672 9.04160512,15.3803697 10.3790888,15.3803697 C11.7165725,15.3803697 12.9748904,14.859672 13.9207122,13.9140849 C14.866534,12.9726634 15.387361,11.7146576 15.387361,10.3775059 C15.387361,9.04451966 14.866534,7.78651393 13.9207122,6.84092684 C12.9748904,5.89533976 11.7165725,5.37464202 10.3790888,5.37464202 Z M13.3151751,9.8151751 C13.6918288,9.8151751 14,10.1233463 14,10.5 C14,10.8766537 13.6918288,11.1848249 13.3151751,11.1848249 L13.3151751,11.1848249 L7.6848249,11.1848249 C7.49649805,11.1848249 7.32529183,11.1077821 7.20116732,10.9836576 C7.0770428,10.8595331 7,10.6883268 7,10.5 C7,10.1233463 7.30817121,9.8151751 7.6848249,9.8151751 L7.6848249,9.8151751 Z" id="Combined-Shape" fill="#091D42"></path>
    </g>
</svg>