<?xml version="1.0" encoding="UTF-8"?>
<svg width="24px" height="24px" viewBox="0 0 24 24" version="1.1" xmlns="http://www.w3.org/2000/svg" xmlns:xlink="http://www.w3.org/1999/xlink">
    <!-- Generator: Sketch 64 (93537) - https://sketch.com -->
    <title>Icon/Categories/Social/mail</title>
    <desc>Created with Sketch.</desc>
    <g id="Icon/Categories/Social/mail" stroke="none" stroke-width="1" fill="none" fill-rule="evenodd">
        <path d="M3,7.52916667 C3,7.45416667 3.09086538,7.41666667 3.14711538,7.47083333 L3.14711538,7.47083333 L7.80721154,12.0375 C7.8375,12.0708333 7.8375,12.1208333 7.80721154,12.1541667 L7.80721154,12.1541667 L4.54903846,15.4958333 C4.32836538,15.7083333 4.32836538,16.05 4.54903846,16.2625 C4.65721154,16.3666667 4.80432692,16.4208333 4.94711538,16.4208333 C5.08990385,16.4208333 5.23701923,16.3666667 5.34519231,16.2625 L5.34519231,16.2625 L8.59038462,12.9333333 C8.625,12.9 8.68125,12.9 8.71586538,12.9333333 L8.71586538,12.9333333 L9.47740385,13.6791667 C10.1480769,14.3333333 11.0567308,14.7208333 12.0129808,14.7166667 C12.95625,14.7125 13.8346154,14.3541667 14.4966346,13.7083333 L14.4966346,13.7083333 L15.2884615,12.9333333 C15.3230769,12.9 15.3793269,12.9 15.4139423,12.9333333 L15.4139423,12.9333333 L18.6591346,16.2625 C18.7673077,16.3666667 18.9144231,16.4208333 19.0572115,16.4208333 C19.2,16.4208333 19.3471154,16.3666667 19.4552885,16.2625 C19.6759615,16.05 19.6759615,15.7083333 19.4552885,15.4958333 L19.4552885,15.4958333 L16.1971154,12.1541667 C16.1625,12.1208333 16.1625,12.0708333 16.1971154,12.0375 L16.1971154,12.0375 L20.8528846,7.47083333 C20.9048077,7.42083333 21,7.45416667 21,7.52916667 L21,7.52916667 L21,16.6666667 C21,17.4 20.3769231,18 19.6153846,18 L19.6153846,18 L4.38461538,18 C3.62307692,18 3,17.4 3,16.6666667 L3,16.6666667 Z M19.6240385,6 C19.9485577,6 20.2427885,6.10833333 20.4807692,6.29166667 L20.4807692,6.29166667 L13.6918269,12.9458333 C13.2418269,13.3875 12.6403846,13.6291667 12,13.6291667 C11.3596154,13.6291667 10.7581731,13.3833333 10.3125,12.9458333 L10.3125,12.9458333 L3.52355769,6.29166667 C3.75721154,6.10833333 4.05576923,6 4.38028846,6 L4.38028846,6 Z" id="Combined-Shape" fill="#091D42"></path>
    </g>
</svg>